<svg width="110" height="107" viewBox="0 0 110 107" fill="none" xmlns="http://www.w3.org/2000/svg">
<path d="M30.4 30.4L0 60.8L0.6 73.7C1 80.7 1.6 91.1 2 96.7L2.6 107H18.4C27.8 107 34.4 106.6 34.8 106C35.1 105.4 35.9 105 36.4 105C37 105 37.1 105.4 36.8 106C36.4 106.6 38 107 40.9 107C45.5 107 45.7 106.9 58 94.8C64.8 88 70.1 82 69.9 81.3C69.6 80.7 69.9 79.9 70.6 79.6C71.5 79.1 71.5 78.9 70.5 78.4C69.5 77.9 69.5 77.5 70.4 76.4C71.2 75.4 72 75.3 73.5 76.1C75.2 77 77.4 75.2 91.3 61.3L107.2 45.5L108.5 22.7L109.8 0H85.3H60.8L30.4 30.4ZM75 19.2L87.3 31.5L72.7 46.2C64.1 54.8 58.4 61.3 58.8 62C59.3 62.8 59.9 62.8 60.9 61.9C62 61 62.6 61 63.4 61.8C63.9 62.5 64 62.8 63.6 62.5C63.3 62.2 62.2 62.7 61.2 63.6C59.8 64.9 59.3 64.9 58.2 63.8C57.1 62.6 56.6 62.7 55.1 64.2C52.9 66.4 52.7 67.8 54.8 66C55.7 65.3 56.3 65.2 56.3 65.8C56.3 66.9 53.4 68.4 51.7 68.2C49.8 67.9 36.3 82.8 36.9 84.5C37.2 85.3 37 86 36.4 86C35.8 86 35.6 86.8 36 87.7C36.5 89.2 36.3 89.3 35.3 88.3C34.2 87.3 34.2 86.8 35.3 85.5C36 84.7 36.1 84 35.6 84C35.1 84 34 84.9 33.1 86C31.4 87.9 31 87.6 19.6 75.9C13.1 69.3 7.6 63.4 7.4 62.8C7.1 61.9 61 7 62.3 7C62.6 7 68.3 12.5 75 19.2ZM102.7 26.8C102.3 32.4 101.7 37 101.3 37C101 37 99.4 35.6 97.7 33.9L94.8 30.9L98.7 23.4C100.9 19.4 102.8 16.2 103 16.4C103.2 16.5 103 21.3 102.7 26.8ZM96.1 40.3C100.2 44.5 100.3 44.7 98.5 46.3C96.8 47.9 96.4 47.7 92.3 43.5C88.6 39.8 88.2 38.9 89.3 37.5C91.1 35.4 91.4 35.5 96.1 40.3ZM91 53.7C89.4 55.3 89.1 55.2 84.8 51C80.6 46.8 80.4 46.5 82 44.8C83.6 43 83.9 43.1 88.2 47.4C92.5 51.7 92.7 52.1 91 53.7ZM81.1 55.3C84.2 58.4 85 59.9 84.2 60.7C83.5 61.4 83.4 62.4 84.1 63.7C85.5 66.3 81.1 71.5 78.6 70.2C77.2 69.3 77.2 69.1 79.1 68.1C80.3 67.4 81.3 67.3 81.3 67.7C81.3 68.1 81.7 67.9 82.2 67.1C82.7 66.3 82.9 65.1 82.6 64.3C81.9 62.5 79.3 62.7 79.3 64.6C79.3 65.4 78.9 65.9 78.3 65.5C77.8 65.2 77.6 64.3 77.9 63.6C78.2 62.8 78 61.9 77.4 61.5C76.8 61.2 76.3 61.4 76.3 62.1C76.3 62.8 75.4 62.6 74.1 61.4C72.8 60.4 73.3 61.2 75.2 63.2C78.1 66.3 78.4 67.2 77.3 68.5C75.5 70.7 74 70.4 70.8 67C68.6 64.7 67.6 64.3 66.6 65.1C65.9 65.7 65.3 65.9 65.3 65.4C65.3 65 64.8 65.1 64.1 65.8C63.2 66.7 63.8 67.9 66.8 71C69.6 73.8 70.3 75.3 69.6 76.2C69.1 76.9 68.8 78.7 68.9 80.2C69.1 81.8 68.7 83 68.2 83C67.6 83 67.5 82.5 67.8 82C68.6 80.7 67 80.7 65.6 82.1C64.9 82.8 64.4 82.7 64 81.6C63.7 80.8 63.8 79.8 64.4 79.5C64.9 79.1 65 78.4 64.7 77.8C64.3 77.1 64.5 77 65.2 77.4C66.1 78 66.1 78.5 65.2 79.6C64.5 80.5 64.4 81 65.1 81C66.9 81 67.5 79 66.3 77.4C65.3 76.3 64.7 76.3 63.7 77.1C62.9 77.7 62.6 78.7 63 79.3C63.3 79.9 63.1 80 62.4 79.6C61.8 79.2 61.6 78.4 61.9 77.8C62.3 77.2 61.9 76.3 61.2 75.8C60.1 75 60.2 74.9 61.6 75.4C64 76.2 63.7 74.7 60.8 72C59.4 70.7 58.5 69 58.8 68.2C59.1 67.4 58.5 66.1 57.6 65.3C56 64 56 64 58 64.9C59.7 65.8 60.5 65.6 61.7 64.4C62.9 63.2 63.3 63.2 63.4 64.2C63.4 65.2 63.6 65.2 64 64.1C64.4 63.1 64.7 63.1 65.3 64C65.7 64.6 66 63.8 65.9 62.2C65.8 60.1 65.5 59.5 64.7 60.1C64.1 60.6 63.3 60.7 63 60.3C62.6 60 61.5 60.3 60.6 61.1C59.6 61.8 59.9 61.2 61.2 59.7C62.6 58.2 63.9 57.3 64.2 57.7C64.5 58.2 67.3 58.5 70.3 58.6C74.2 58.6 75.7 59 75.5 59.9C75.4 60.6 75.7 60.9 76.2 60.6C76.7 60.2 77.4 60.4 77.8 61C78.1 61.5 78.9 62 79.6 62C80.2 62 79 60.2 76.8 58C73.6 54.7 73.2 53.9 74.3 52.5C76.1 50.4 76.4 50.5 81.1 55.3ZM81.7 64.9C82 65.4 81.6 66 80.8 66.3C79.9 66.7 79.6 66.4 80 65.4C80.6 63.8 81 63.7 81.7 64.9ZM57.9 76.1C58.4 76.1 59.9 77.5 61.2 79.1C63.5 82 63.5 82.2 61.7 83.5C59.1 85.5 59 85.5 54.4 80.8C50.6 76.9 50.5 76.5 52 74.8C53.5 73.2 53.8 73.1 55.3 74.5C56.2 75.3 57.4 76 57.9 76.1ZM54.9 83.2C56.5 85 57.1 85.9 56.3 85.2C55.5 84.6 54.5 84 54 84C53.4 84 53.4 84.5 53.9 85.2C55.1 86.8 54.9 88.7 53.4 92.3C52.8 93.9 52.6 95.6 52.9 96.2C53.2 96.7 52.5 98.2 51.3 99.5C49 101.9 47.3 102 47.3 99.7C47.3 98.8 47.5 98.8 48.1 99.6C48.6 100.4 49.4 100 50.6 98.4C51.6 97.1 51.9 96 51.4 96C50.8 96 49.9 96.8 49.4 97.7C48.8 98.7 48.3 99.1 48.3 98.7C48.3 98.3 47.4 98.4 46.2 99.1C44.4 100 43.5 99.6 39.4 95.3C34.5 90.4 31.9 88.8 32.9 91.5C33.3 92.3 33.9 92.7 34.4 92.4C34.9 92.1 35.3 92.2 35.2 92.7C34.9 94.7 35.4 96.1 36.3 95.5C36.9 95.2 37 95.6 36.7 96.4C36.3 97.4 36.6 98 37.4 98C38.1 98 38.3 98.3 38 98.7C37.3 99.3 33.1 95.6 33.7 94.9C33.9 94.7 33.2 93.6 32.2 92.6C30.8 91.2 30.3 91 30.3 92C30.3 92.8 32.2 95.3 34.4 97.6C38.2 101.5 38.9 104 36 104C35.3 104 35.4 103.6 36.3 103C37.3 102.4 34.6 102 27.8 101.8L17.8 101.5L22.3 99C25.5 97.1 26.8 95.8 26.7 94.3C26.7 93.1 27.1 92.2 27.6 92.3C28.1 92.4 28.8 91.9 29 91.2C29.3 90.5 28.9 90.2 28.1 90.5C26.9 91 26.7 90.4 27.2 87.8C27.5 85.5 27.8 85.1 28.1 86.5C28.7 89.5 30.1 90.6 31.5 89.2C32.2 88.5 33.2 88.4 34.3 89C35.2 89.5 36.5 89.5 37.3 89C38.3 88.4 39.8 89.1 42.1 91.1C44.1 92.9 46.2 93.9 47 93.6C48 93.2 48.3 93.4 48 94.4C47.1 96.7 48.5 97.2 50.4 95.2C52 93.6 51.9 93.3 47.5 88.8C43.8 84.9 43.1 83.8 44.1 82.8C45.5 81.4 50.5 80.9 49.7 82.2C49.4 82.6 49.6 83 50.2 83C50.7 83 51.5 83.9 51.8 85C52.1 86.1 52.9 87 53.6 87C54.4 87 54.4 86.7 53.6 85.9C53 85.3 52.7 84.1 53 83.4C53.3 82.6 53 82 52.4 82C51.8 82 51.3 81.5 51.3 81C51.3 79.5 51.7 79.7 54.9 83.2ZM48.1 90.9C49.3 91.9 50.3 93.1 50.3 93.6C50.3 94 49.8 93.9 49.2 93.3C48.6 92.7 47.5 92.3 46.9 92.4C46.3 92.6 46.2 92.5 46.6 92.2C47 92 46.9 91.2 46.2 90.4C44.6 88.4 45.6 88.7 48.1 90.9ZM33.1 103.7C32.1 103.9 30.5 103.9 29.6 103.7C28.6 103.4 29.4 103.2 31.3 103.2C33.2 103.2 34 103.4 33.1 103.7ZM39.8 105C40.1 105.5 39.9 106 39.4 106C38.8 106 38.3 105.5 38.3 105C38.3 104.4 38.5 104 38.7 104C39 104 39.5 104.4 39.8 105ZM32.6 105.7C31.9 105.9 30.7 105.9 30.1 105.7C29.4 105.4 29.9 105.2 31.3 105.2C32.7 105.2 33.2 105.4 32.6 105.7Z" fill="black"/>
<path d="M72.0001 77.8001C72.1001 78.6001 72.3001 79.4001 72.3001 79.6001C72.3001 79.9001 72.8001 79.8001 73.3001 79.5001C73.9001 79.2001 74.3001 78.4001 74.3001 77.9001C74.3001 77.3001 73.9001 77.1001 73.4001 77.4001C72.9001 77.8001 72.3001 77.7001 72.0001 77.3001C71.8001 76.8001 71.8001 77.1001 72.0001 77.8001Z" fill="black"/>
</svg>
