<svg width="107" height="109" viewBox="0 0 107 109" fill="none" xmlns="http://www.w3.org/2000/svg">
<path d="M79 14.2001V28.1001H93H107V14.0001V9.72748e-05L93 0.200098L79 0.400097V14.2001ZM101 14.6001V23.2001L92.9 22.9001L84.7 22.6001L84.5 15.6001C84.4 11.7001 84.5 8.0001 84.8 7.3001C85.1 6.5001 87.7 6.1001 93.1 6.1001H101V14.6001Z" fill="black"/>
<path d="M0 36.1001V71.1001H35H70V36.1001V1.1001H35H0V36.1001ZM65 36.1001V66.1001H35H5V36.1001V6.1001H35H65V36.1001Z" fill="black"/>
<path d="M36 48.6001V60.1001H39H42V51.6001V43.2001L50.7 42.9001C59.3 42.6001 59.4 42.6001 59.4 40.1001V37.6001L47.7 37.3001L36 37.0001V48.6001Z" fill="black"/>
<path d="M76 40.1001V43.1001H88.5H100.9L101.2 71.6001C101.4 87.3001 101.4 100.6 101.2 101.1C101 101.7 90 102.1 71.4 102.1H42.1L41.8 89.4001L41.5 76.8001L38.8 76.7001L36 76.5001V92.3001V108.1H71.5H107V72.6001V37.1001H91.5H76V40.1001Z" fill="black"/>
<path d="M0 94.1001V108.1H13.8H27.5V94.3001V80.6001L13.8 80.3001L0 80.0001V94.1001Z" fill="black"/>
</svg>
