<svg width="142" height="117" viewBox="0 0 142 117" fill="none" xmlns="http://www.w3.org/2000/svg">
<path d="M74.6032 1.06291C67.0032 3.06291 59.8032 12.4629 59.8032 20.2629C59.8032 28.2629 65.9032 36.6629 73.5032 39.2629C79.0032 41.1629 81.0032 41.2629 86.1032 39.7629C93.3032 37.7629 100.803 28.2629 100.803 21.0629C100.803 12.0629 93.9032 3.16291 85.3032 0.96291C80.3032 -0.337093 79.6032 -0.337093 74.6032 1.06291ZM86.8032 7.66291C97.0032 12.7629 97.4032 26.8629 87.6032 32.8629C78.3032 38.4629 65.8032 31.3629 65.8032 20.3629C65.8032 9.66291 77.1032 2.76291 86.8032 7.66291Z" fill="black"/>
<path d="M21.4031 67.4629C9.40307 85.3629 -0.196931 100.263 0.00306913 100.463C0.203069 100.663 8.80307 100.863 19.1031 100.863C29.4031 100.963 37.8031 101.263 37.8031 101.663C37.8031 101.963 34.6031 105.263 30.8031 109.063C26.9031 112.763 23.8031 115.863 24.0031 115.863C30.2031 116.163 141.803 116.163 141.803 115.863C141.803 115.663 138.003 111.563 133.303 106.863L124.803 98.3629L132.703 85.1629L140.603 72.0629L135.103 64.7629C132.103 60.7629 128.103 55.1629 126.203 52.1629L122.803 46.8629H111.503H100.203L95.0031 53.2629L89.9031 59.6629L82.6031 60.0629C74.2031 60.3629 76.0031 61.4629 55.5031 44.5629C49.0031 39.2629 43.6031 34.8629 43.4031 34.8629C43.3031 34.8629 33.3031 49.5629 21.4031 67.4629ZM69.2031 62.9629C69.7031 63.3629 67.9031 67.5629 65.2031 72.3629L60.4031 80.9629L53.6031 74.1629L46.8031 67.4629V56.0629V44.6629L57.6031 53.4629C63.5031 58.2629 68.7031 62.5629 69.2031 62.9629ZM50.3031 78.8629L59.8031 88.3629L71.0031 88.1629C77.2031 88.0629 82.5031 87.9629 82.8031 87.8629C83.1031 87.7629 83.7031 87.6629 84.2031 87.7629C85.2031 87.9629 97.5031 88.1629 99.5031 87.9629C100.103 87.8629 101.603 86.3629 102.703 84.4629C104.903 80.9629 105.403 79.3629 104.003 80.2629C103.603 80.4629 103.203 79.5629 103.303 78.1629C103.303 75.6629 107.803 71.2629 107.803 73.7629C107.803 74.3629 107.203 74.8629 106.603 74.8629C105.903 74.8629 105.203 75.9629 105.203 77.3629C105.003 79.3629 105.303 79.6629 106.303 78.8629C107.003 78.2629 107.903 76.6629 108.203 75.3629C108.603 73.9629 109.303 72.8629 109.903 72.8629C110.503 72.8629 110.603 73.2629 110.303 73.8629C109.903 74.4629 113.603 74.8629 120.703 74.8629C126.803 74.8629 131.803 75.0629 131.803 75.3629C131.803 75.5629 129.203 80.1629 125.903 85.5629L120.003 95.3629L83.2031 95.6629L46.4031 95.8629L35.6031 85.1629C29.7031 79.2629 24.8031 73.9629 24.8031 73.4629C24.8031 72.9629 28.3031 67.2629 32.6031 60.8629L40.3031 49.1629L40.6031 59.2629L40.9031 69.3629L50.3031 78.8629ZM114.103 55.0629C104.203 71.7629 100.303 77.8629 99.7031 77.8629C99.3031 77.8629 97.9031 74.6629 96.4031 70.8629L93.8031 63.7629L98.6031 57.8629L103.303 51.8629H109.603H116.003L114.103 55.0629ZM126.603 61.9629C128.903 65.0629 130.803 68.0629 130.803 68.6629C130.803 69.4629 128.503 69.8629 124.103 69.8629C119.303 69.8629 117.703 70.1629 118.803 70.8629C120.103 71.6629 120.003 71.8629 118.603 71.8629C117.603 71.8629 116.803 71.3629 116.803 70.8629C116.803 70.2629 115.903 69.8629 114.803 69.8629C112.403 69.8629 112.403 69.6629 114.503 65.5629C117.403 59.7629 121.103 54.7629 121.803 55.5629C122.103 55.9629 124.303 58.8629 126.603 61.9629ZM91.1031 72.5629C92.5031 76.3629 93.9031 80.1629 94.3031 81.0629C95.0031 82.7629 93.9031 82.8629 80.9031 82.8629C71.9031 82.8629 66.8031 82.4629 66.8031 81.8629C66.8031 81.2629 68.7031 77.4629 71.1031 73.3629L75.3031 65.8629H81.9031H88.6031L91.1031 72.5629ZM124.603 73.5629C123.603 73.7629 122.003 73.7629 121.103 73.5629C120.103 73.2629 120.903 73.0629 122.803 73.0629C124.703 73.0629 125.503 73.2629 124.603 73.5629ZM29.8031 87.3629L38.3031 95.8629H23.9031C16.1031 95.8629 9.80307 95.4629 10.0031 95.0629C10.8031 93.1629 20.3031 78.8629 20.8031 78.8629C21.1031 78.8629 25.1031 82.6629 29.8031 87.3629ZM96.2031 85.3629C95.8031 86.1629 95.2031 86.8629 94.7031 86.8629C94.3031 86.8629 94.1031 86.1629 94.4031 85.3629C94.8031 84.5629 95.4031 83.8629 95.9031 83.8629C96.3031 83.8629 96.5031 84.5629 96.2031 85.3629ZM83.3031 99.8629C82.7031 100.863 83.9031 101.063 89.3031 101.063C94.9031 101.063 95.4031 100.863 93.8031 99.8629C92.5031 99.0629 92.6031 98.8629 94.1031 98.8629C97.1031 98.8629 95.7031 102.863 91.5031 106.163L87.7031 109.263L84.2031 105.763C81.8031 103.363 80.9031 101.663 81.4031 100.563C81.7031 99.6629 82.4031 98.8629 83.0031 98.8629C83.5031 98.8629 83.6031 99.2629 83.3031 99.8629ZM75.6031 105.263C78.2031 107.763 80.0031 109.963 79.7031 110.263C79.4031 110.663 69.8031 110.763 58.5031 110.663L37.9031 110.363L42.1031 105.663L46.3031 100.963H58.6031L70.9031 100.863L75.6031 105.263ZM123.503 105.063C125.903 107.363 127.803 109.663 127.803 110.063C127.803 110.463 120.303 110.863 111.103 110.863H94.3031L99.5031 105.863L104.703 100.863H111.903C119.203 100.863 119.303 100.863 123.503 105.063Z" fill="black"/>
</svg>
