<svg width="100" height="112" viewBox="0 0 100 112" fill="none" xmlns="http://www.w3.org/2000/svg">
<path d="M43.3073 1.29566C40.7073 1.99566 38.3073 2.69566 38.1073 2.79566C37.8073 2.79566 36.8073 2.89566 35.9073 2.99566C34.9073 3.09566 35.5073 3.49566 37.1073 3.89566C49.4073 7.39566 52.1073 7.29566 47.7073 3.79566C46.4073 2.79566 45.9073 1.89566 46.5073 1.89566C47.0073 1.89566 48.4073 2.89566 49.5073 3.99566C51.2073 5.89566 52.2073 6.09566 56.8073 5.49566C63.7073 4.59566 66.1073 3.29566 62.0073 2.39566C60.4073 2.09566 57.7073 1.39566 56.0073 0.895656C52.1073 -0.404344 49.2073 -0.304344 43.3073 1.29566Z" fill="black"/>
<path d="M27.4074 12.1956C22.5074 12.6956 18.6074 13.4956 18.6074 13.8956C18.6074 14.6956 26.7074 15.5956 43.1074 16.5956C53.5074 17.1956 81.6074 15.2956 81.6074 13.8956C81.6074 12.6956 60.5074 10.8956 48.1074 10.9956C41.5074 11.0956 32.2074 11.5956 27.4074 12.1956ZM46.3074 12.4956C46.0074 12.7956 45.1074 12.8956 44.4074 12.5956C43.6074 12.2956 43.9074 11.9956 45.0074 11.9956C46.1074 11.8956 46.7074 12.1956 46.3074 12.4956ZM36.1074 13.8956C36.4074 14.3956 36.3074 14.8956 35.7074 14.8956C35.2074 14.8956 34.4074 14.3956 34.1074 13.8956C33.8074 13.2956 33.9074 12.8956 34.5074 12.8956C35.0074 12.8956 35.8074 13.2956 36.1074 13.8956Z" fill="black"/>
<path d="M41.6074 21.1954C41.3074 21.4954 36.2074 21.9954 30.1074 22.3954C24.1074 22.6954 16.4074 23.2954 13.1074 23.7954L7.10742 24.4954L15.6074 25.2954C45.2074 28.0954 52.6074 28.2954 72.6074 26.4954C82.7074 25.4954 91.2074 24.6954 91.3074 24.4954C91.9074 23.9954 69.5074 21.9954 55.6074 21.2954C48.2074 20.8954 41.9074 20.8954 41.6074 21.1954Z" fill="black"/>
<path d="M17.9073 33.2956C3.80731 34.4956 -1.49269 36.1956 10.2073 35.7956C14.1073 35.6956 17.8073 35.8956 18.5073 36.2956C20.9073 37.7956 57.8073 38.1956 77.1073 36.8956C87.9073 36.1956 96.4073 35.2956 96.0073 34.9956C94.9073 33.8956 64.6073 31.9956 48.1073 32.0956C38.8073 32.1956 25.2073 32.6956 17.9073 33.2956Z" fill="black"/>
<path d="M38.107 42.5954C22.407 43.4954 1.60702 45.1954 1.90702 45.5954C2.20702 45.7954 4.80702 46.1954 7.70702 46.3954C48.107 49.1954 49.607 49.2954 70.807 47.9954C82.507 47.2954 94.107 46.3954 96.607 45.9954C101.607 45.1954 98.207 44.8954 67.107 42.8954C52.607 41.9954 48.707 41.8954 38.107 42.5954Z" fill="black"/>
<path d="M21.1071 53.9955C14.0071 54.4955 6.10707 55.1955 3.60707 55.5955C-0.792934 56.1955 -0.692934 56.2955 7.10707 57.0955C19.5071 58.2955 51.6071 59.6955 57.1071 59.2955C59.9071 59.0955 70.9071 58.3955 81.6071 57.6955C103.907 56.3955 103.107 55.6955 77.0071 53.9955C57.9071 52.7955 40.6071 52.7955 21.1071 53.9955Z" fill="black"/>
<path d="M44.1071 63.3954C42.5071 63.5954 31.8071 64.2954 20.3071 64.9954C8.90714 65.5954 -0.292866 66.3954 0.00713426 66.5954C1.00713 67.5954 36.2071 69.8954 50.1071 69.7954C64.5071 69.7954 98.2071 67.5954 99.1071 66.6954C99.4071 66.3954 90.9071 65.6954 80.4071 64.9954C52.8071 63.2954 47.5071 63.0954 44.1071 63.3954Z" fill="black"/>
<path d="M28.1074 74.8954C23.2074 75.2954 15.3074 75.9954 10.6074 76.3954L2.10742 77.2954L8.10742 77.9954C34.4074 81.0954 59.4074 81.0954 90.6074 78.0954L98.1074 77.2954L91.6074 76.5954C69.3074 74.0954 46.3074 73.4954 28.1074 74.8954Z" fill="black"/>
<path d="M21.4074 86.1955C14.9074 86.6955 9.60742 87.4955 9.60742 87.8955C9.60742 88.8955 37.1074 90.8955 50.6074 90.8955C63.4074 90.8955 88.7074 88.9955 89.9074 87.8955C91.1074 86.7955 62.2074 84.8955 47.1074 84.9955C39.4074 85.0955 27.8074 85.5955 21.4074 86.1955Z" fill="black"/>
<path d="M36.6071 95.8956C32.5071 96.2956 26.2071 96.9956 22.6071 97.3956C16.1071 98.2956 16.1071 98.2956 20.1071 98.9956C32.7071 101.296 50.1071 102.096 62.4071 100.996C76.8071 99.6956 82.9071 98.8956 82.4071 98.2956C81.7071 97.6956 52.8071 94.8956 48.4071 94.9956C46.0071 95.0956 40.7071 95.4956 36.6071 95.8956Z" fill="black"/>
<path d="M39.9074 107.196C37.5074 107.696 35.6074 108.496 35.6074 108.996C35.6074 110.096 44.9074 111.896 50.4074 111.896C56.0074 111.896 65.8074 109.396 63.6074 108.596C56.4074 105.796 47.6074 105.296 39.9074 107.196Z" fill="black"/>
</svg>
