<svg width="109" height="109" viewBox="0 0 109 109" fill="none" xmlns="http://www.w3.org/2000/svg">
<path d="M0 35.5V71L18.5 70.9H37L37.2 54.2L37.5 37.5L54.2 37.2L70.9 37L71 18.5V0H35.5H0V35.5Z" fill="black"/>
<path d="M47.9999 45.6001C47.9999 46.5001 47.0999 47.4001 45.9999 47.7001C43.1999 48.4001 43.1999 53.0001 45.9999 53.0001C47.3999 53.0001 47.9999 53.6001 47.7999 54.7001C47.5999 56.0001 48.2999 56.6001 50.2999 56.8001C52.4999 57.1001 52.9999 56.7001 52.9999 55.1001C52.9999 53.7001 53.5999 53.0001 54.9999 53.0001C56.4999 53.0001 56.9999 52.3001 56.9999 50.4001C56.9999 48.7001 56.3999 47.6001 54.9999 47.3001C53.8999 47.0001 52.9999 46.1001 52.9999 45.4001C52.9999 44.6001 51.9999 44.0001 50.4999 44.0001C48.8999 44.0001 47.9999 44.6001 47.9999 45.6001Z" fill="black"/>
<path d="M64.7002 46C64.4002 47.1 63.6002 47.9 63.0002 47.8C62.3002 47.6 61.7002 48.7 61.6002 50.2C61.5002 52.2 61.9002 53 63.1002 53C64.0002 53 65.0002 53.9 65.3002 55C65.6002 56.2 66.7002 57 68.0002 57C69.3002 57 70.4002 56.2 70.7002 55C71.0002 53.9 71.9002 53 72.6002 53C73.5002 53 74.0002 51.9 74.0002 50C74.0002 48 73.5002 47 72.5002 47C71.7002 47 71.0002 46.3 71.0002 45.5C71.0002 43.1 65.4002 43.5 64.7002 46Z" fill="black"/>
<path d="M83 45.4C83 46.1 82.1 47 81 47.3C79.6 47.6 79 48.7 79 50.4C79 52.3 79.5 53 81 53C82.3 53 83 53.7 83 55C83 56.5 83.7 57 85.5 57C87.3 57 88 56.5 88 55C88 53.7 88.7 53 90 53C91.4 53 92 52.3 92 50.6C92 49.1 91.3 48 90 47.7C88.9 47.4 88 46.5 88 45.6C88 44.6 87.1 44 85.5 44C84 44 83 44.6 83 45.4Z" fill="black"/>
<path d="M100 45.4C100 46.1 99.1001 47 98.1001 47.3C96.8001 47.6 96.3001 48.5 96.5001 49.6C96.7001 50.7 96.9001 51.8 96.9001 52.2C97.0001 52.7 97.6001 53 98.4001 53C99.1001 53 100 53.9 100.3 55C100.6 56.2 101.7 57 103 57C104.3 57 105.4 56.2 105.7 55C106 53.9 106.9 53 107.6 53C108.5 53 109 51.9 109 50C109 48 108.5 47 107.5 47C106.7 47 106 46.3 106 45.5C106 44.5 105 44 103 44C101.1 44 100 44.5 100 45.4Z" fill="black"/>
<path d="M48.1999 61.7C47.5999 61.9 47.2999 62.6 47.5999 63.2C47.8999 63.7 47.2999 64.4 46.0999 64.7C43.2999 65.4 43.1999 70 45.9999 70.7C47.0999 71 47.9999 71.9 47.9999 72.6C47.9999 73.4 48.9999 74 50.4999 74C51.9999 74 52.9999 73.4 52.9999 72.6C52.9999 71.9 53.8999 71 54.9999 70.7C56.3999 70.4 56.9999 69.3 56.9999 67.6C56.9999 65.7 56.4999 65 54.9999 65C53.6999 65 52.9999 64.3 52.9999 63C52.9999 61 51.0999 60.5 48.1999 61.7Z" fill="black"/>
<path d="M65.2998 63.1C64.9998 64.1 63.9998 65 63.0998 65C61.6998 65 61.3998 65.7 61.7998 68C61.9998 69.7 62.7998 71 63.5998 71C64.3998 71 64.9998 71.7 64.9998 72.5C64.9998 73.5 65.9998 74 67.9998 74C69.9998 74 70.9998 73.5 70.9998 72.5C70.9998 71.7 71.6998 71 72.4998 71C73.4998 71 73.9998 70 73.9998 68C73.9998 66.1 73.4998 65 72.5998 65C71.8998 65 70.9998 64.2 70.7998 63.2C70.0998 60.7 65.8998 60.6 65.2998 63.1Z" fill="black"/>
<path d="M82.7002 61.6C82.4002 61.9 82.4002 62.8 82.7002 63.6C83.0002 64.5 82.5002 65 81.1002 65C78.2002 65 78.1002 70 81.0002 70.7C82.1002 71 83.0002 71.9 83.0002 72.6C83.0002 73.4 84.0002 74 85.5002 74C87.0002 74 88.0002 73.4 88.0002 72.6C88.0002 71.9 88.9002 71 90.0002 70.7C92.7002 70 92.8002 65 90.1002 65C89.1002 65 88.0002 64.1 87.7002 63C87.2002 61.1 84.1002 60.2 82.7002 61.6Z" fill="black"/>
<path d="M100.3 62.9C100 64 99.1 65 98.4 65C97.6 65 97 65.9 97 67C97 69.9 97.3 70.5 98.8 70.4C99.4 70.3 100 71.1 100 72.1C100 73.5 100.7 74 103 74C105.3 74 106 73.6 106 72C106 70.7 106.5 70.2 107.5 70.6C108.6 71.1 109 70.5 109 68.1C109 66 108.5 65 107.5 65C106.7 65 106 64.3 106 63.5C106 62.7 105.6 62 105.1 62C104.6 62 103.4 61.7 102.5 61.4C101.4 60.9 100.7 61.4 100.3 62.9Z" fill="black"/>
<path d="M47.6999 81.0001C47.3999 82.1001 46.5999 82.9001 45.7999 82.8001C44.9999 82.6001 44.3999 83.6001 44.1999 85.1001C43.9999 87.1001 44.3999 87.9001 45.9999 88.3001C47.0999 88.6001 47.8999 89.4001 47.7999 90.2001C47.5999 91.0001 48.5999 91.6001 50.2999 91.8001C52.4999 92.1001 52.9999 91.7001 52.9999 90.1001C52.9999 88.6001 53.5999 88.0001 55.0999 88.0001C56.6999 88.0001 57.0999 87.5001 56.7999 85.2001C56.5999 83.6001 55.9999 82.6001 55.1999 82.8001C54.3999 82.9001 53.5999 82.1001 53.2999 81.0001C52.9999 79.7001 51.8999 79.0001 50.4999 79.0001C49.0999 79.0001 47.9999 79.7001 47.6999 81.0001Z" fill="black"/>
<path d="M64.7001 81C64.4001 82.1 63.6001 82.9 63.0001 82.8C62.3001 82.6 61.7001 83.7 61.6001 85.2C61.5001 87.3 61.9001 88 63.2001 88C64.3001 88 65.0001 88.7 65.0001 90C65.0001 91.5 65.7001 92 67.6001 92C69.3001 92 70.4001 91.4 70.7001 90C71.0001 88.9 71.9001 88 72.6001 88C73.5001 88 74.0001 86.9 74.0001 84.9C74.0001 83 73.6001 82.1 72.9001 82.5C72.3001 82.9 71.6001 82.3 71.3001 81.1C70.6001 78.2 65.5001 78.1 64.7001 81Z" fill="black"/>
<path d="M82.9001 79.7C82.8001 80.2 82.8001 80.9 82.9001 81.3C83.0001 81.8 82.1001 82.4 81.0001 82.7C78.3001 83.4 78.3001 87.6 81.0001 88.3C82.1001 88.6 83.0001 89.5 83.0001 90.4C83.0001 91.4 83.9001 92 85.5001 92C87.3001 92 88.0001 91.5 88.0001 90C88.0001 88.6 88.7001 88 90.1001 88C91.7001 88 92.1001 87.5 91.8001 85.2C91.6001 83.6 91.0001 82.6 90.2001 82.8C89.4001 82.9 88.6001 82.1 88.3001 81C88.0001 79.7 86.9001 79 85.4001 79C84.1001 79 82.9001 79.3 82.9001 79.7Z" fill="black"/>
<path d="M99.6999 81C99.3999 82.1 98.5999 82.9 97.9999 82.8C97.2999 82.6 96.5999 83.7 96.4999 85.2C96.1999 87.4 96.4999 88 98.0999 88C99.2999 88 99.9999 88.7 99.9999 90C99.9999 91.5 100.7 92 102.6 92C104.3 92 105.4 91.4 105.7 90C106 88.9 106.9 88 107.6 88C108.5 88 109 86.9 109 85C109 82.8 108.6 82.2 107.5 82.6C106.5 83 106 82.6 106 81.1C106 78.1 100.5 78.1 99.6999 81Z" fill="black"/>
<path d="M47.8997 96.6C47.7997 97.1 47.7997 97.9 47.8997 98.3C47.9997 98.8 47.0997 99.4 45.9997 99.7C43.0997 100.5 43.0997 106 45.9997 106C47.0997 106 47.9997 106.7 47.9997 107.5C47.9997 108.4 48.8997 109 50.4997 109C51.9997 109 52.9997 108.4 52.9997 107.6C52.9997 106.9 53.8997 106 54.9997 105.7C56.3997 105.4 56.9997 104.3 56.9997 102.6C56.9997 100.7 56.4997 100 54.9997 100C53.8997 100 52.9997 99.3 52.9997 98.5C52.9997 97.7 52.5997 97 52.0997 97C51.5997 97 50.4997 96.7 49.5997 96.4C48.6997 96.1 47.8997 96.2 47.8997 96.6Z" fill="black"/>
<path d="M67.3 96.8C66 97 65 97.8 65 98.6C65 99.4 64.3 100 63.5 100C62.5 100 62 101 62 103C62 105 62.5 106 63.5 106C64.3 106 65 106.7 65 107.5C65 108.5 66 109 68 109C70 109 71 108.5 71 107.5C71 106.7 71.7 106 72.5 106C73.5 106 74 105 74 103C74 101 73.5 100 72.5 100C71.7 100 71 99.4 71 98.6C71 96.7 70.1 96.3 67.3 96.8Z" fill="black"/>
<path d="M82.9 96.7C82.8 97.2 82.8 97.9 82.9 98.3C83 98.8 82.1 99.4 81 99.7C78.3 100.4 78.2 105 80.9 105.7C82.1 106 82.6 106.8 82.3 107.6C81.9 108.6 82.6 109 84.8 109C86.9 109 87.9 108.4 88.3 107C88.6 105.9 89.4 105.1 90.2 105.2C91 105.4 91.6 104.4 91.8 102.7C92.1 100.5 91.7 100 90.1 100C88.9 100 88 99.4 88 98.6C88 96.7 83.2 94.9 82.9 96.7Z" fill="black"/>
<path d="M100.2 98.2C99.9998 99.2 98.9998 100 98.0998 100C96.6998 100 96.3998 100.7 96.7998 103C96.9998 104.7 97.7998 106 98.5998 106C99.3998 106 99.9998 106.7 99.9998 107.5C99.9998 108.5 101 109 103 109C105 109 106 108.5 106 107.5C106 106.7 106.7 106 107.5 106C108.5 106 109 105 109 103C109 101.1 108.5 100 107.6 100C106.8 100 106 99.2 105.8 98.3C105.4 96 100.9 95.8 100.2 98.2Z" fill="black"/>
</svg>
