<svg width="119" height="119" viewBox="0 0 119 119" fill="none" xmlns="http://www.w3.org/2000/svg">
<path d="M49.7 9.30161C44.8 14.4016 40.6 18.9016 40.4 19.5016C40.2 20.0016 43.7 24.0016 48.1 28.4016L56.1 36.4016V46.1016V55.9016L49.4 56.0016C36.7 56.2016 37.3 56.4016 28.4 47.6016L20.2 39.5016L18 41.5016C16.8 42.5016 12.3 47.0016 7.9 51.3016L0 59.2016L9.8 69.1016L19.6 78.9016L28.1 70.4016L36.6 61.9016H46.4H56.1V72.1016V82.4016L47.9 90.6016L39.6 98.9016L49.4 108.602L59.1 118.402L69.1 108.402L79.1 98.4016L70.6 89.9016L62.1 81.4016V71.6016V61.9016H71.8H81.6L90.1 70.4016L98.6 78.9016L108.6 68.9016L118.6 58.9016L108.8 49.2016L99.1 39.4016L90.8 47.7016L82.4 56.0016L72.5 56.1016L62.6 56.2016L62.3 46.4016L62 36.5016L70.6 27.9016L79.1 19.4016L69.3 9.60161C63.9 4.30161 59.3 -0.0983887 59 0.0016098C58.8 0.101608 54.6 4.30161 49.7 9.30161ZM65.1 25.4016L59.1 31.4016L53.6 25.9016C50.6 22.9016 48.1 20.1016 48.1 19.6016C48.1 19.2016 50.6 16.3016 53.7 13.2016L59.3 7.70161L65.2 13.5016L71.1 19.4016L65.1 25.4016ZM26.1 53.4016L31.6 58.9016L25.6 64.9016L19.6 70.9016L13.7 65.0016L7.8 59.1016L13.5 53.5016C16.6 50.4016 19.5 47.9016 19.9 47.9016C20.3 47.9016 23.1 50.4016 26.1 53.4016ZM105.1 53.4016L110.5 58.9016L104.6 64.9016L98.7 70.9016L92.9 65.2016L87.1 59.5016L92.8 53.7016C96 50.5016 98.8 47.9016 99.1 47.9016C99.4 47.9016 102.1 50.4016 105.1 53.4016ZM65.1 104.402L59.1 110.402L53.4 104.602L47.6 98.9016L53.6 92.9016L59.5 86.9016L65.3 92.6016L71.1 98.4016L65.1 104.402Z" fill="black"/>
<path d="M29.8001 29.7016L23.1001 36.4016L30.9001 44.2016L38.6001 51.9016H45.4001H52.1001V45.1016V38.4016L44.3001 30.6016L36.6001 22.9016L29.8001 29.7016Z" fill="black"/>
<path d="M75.3003 30.2016C71.3003 34.2016 67.7003 37.9016 67.3003 38.5016C66.9003 39.2016 66.8003 42.4016 66.9003 45.8016L67.3003 51.9016H73.5003H79.6003L87.6003 43.9016L95.5003 36.0016L89.0003 29.5016L82.5003 23.0016L75.3003 30.2016Z" fill="black"/>
<path d="M32.1 73.4016C28 77.2016 24.3 80.8016 23.9 81.4016C23.5 81.9016 26.1 85.3016 29.6 88.9016L36.1 95.4016L44.1 87.4016L52.1 79.4016V73.3016V67.1016L45.9 66.7016L39.6 66.4016L32.1 73.4016Z" fill="black"/>
<path d="M71.4 66.7016L67.3 67.0016L66.9 73.2016L66.5 79.4016L74.3 87.4016L82 95.4016L88.8 88.6016L95.6 81.9016L88 74.3016C80.2 66.5016 79.4 66.1016 71.4 66.7016Z" fill="black"/>
</svg>
