<svg width="107" height="107" viewBox="0 0 107 107" fill="none" xmlns="http://www.w3.org/2000/svg">
<path d="M0 51.8999C0 96.7999 0.2 104.1 1.5 105.4C2.8 106.7 9.8 106.9 52.7 106.9C80 106.9 103.4 106.7 104.7 106.4L107 105.8L106.7 53.0999L106.5 0.499901L53.3 0.199898L0 -9.91821e-05V51.8999ZM75 27.4999L53.5 48.9999L43.8 39.2999L34 29.4999L45.7 17.7999L57.5 5.9999H77H96.5L75 27.4999ZM101 34.2999V57.5999L94.9 58.8999C76.4 62.6999 62.5 76.6999 58.9 95.0999L57.7 101H33.6H9.5L54.5 55.9999C79.2 31.1999 99.8 10.9999 100.2 10.9999C100.7 10.9999 101 21.4999 101 34.2999ZM32 35.6999C33.8 37.2999 34 38.6999 34 52.7999C34 67.7999 33.9 68.2999 31.5 71.1999C30.1 72.7999 29 73.8999 29 73.5999C29 73.2999 29 64.3999 29 53.9999C29 43.4999 29 34.7999 29 34.4999C29 33.5999 29.9 33.9999 32 35.6999ZM20 82.3999L17 85.4999V65.9999V46.5999L19.8 43.6999L22.5 40.8999L22.8 60.0999L23 79.3999L20 82.3999ZM45.4 57.3999C43.2 59.7999 41.2 61.8999 40.8 61.8999C40.3 61.9999 40 57.7999 40 52.6999V43.4999L44.6 48.2999L49.2 52.9999L45.4 57.3999ZM12 71.7999V90.5999L9 93.4999L6 96.3999V76.9999C6 58.4999 6.1 57.4999 8.2 55.2999C9.4 53.9999 10.7 52.9999 11.2 52.9999C11.6 52.9999 12 61.4999 12 71.7999ZM101 66.4999C101 68.9999 100.9 68.9999 92.3 68.9999C85.1 68.8999 83.9 68.6999 85.5 67.7999C89 65.6999 94.4 64.0999 97.8 63.9999C100.6 63.9999 101 64.2999 101 66.4999ZM101 77.4999V79.9999H86.5C78.5 79.9999 72 79.6999 72 79.2999C72 78.9999 72.7 77.7999 73.7 76.7999C75.1 75.1999 77 74.9999 88.2 74.9999H101V77.4999ZM101 87.4999V89.9999H83.5C73.9 89.9999 66 89.6999 66 89.3999C66 89.0999 66.5 87.9999 67 86.8999C68 85.0999 69.3 84.9999 84.5 84.9999H101V87.4999ZM101 98.4999V101H82.5H64V98.4999V95.9999H82.5H101V98.4999Z" fill="black"/>
</svg>
