<svg width="123" height="104" viewBox="0 0 123 104" fill="none" xmlns="http://www.w3.org/2000/svg">
<path d="M76.9998 1.18784C68.9998 3.08784 64.9998 5.08784 59.1998 10.2878C53.0998 15.7878 47.8998 25.4878 47.1998 32.7878C46.7998 37.5878 46.7998 37.7878 49.2998 37.7878C51.4998 37.7878 51.8998 37.2878 52.4998 33.4878C55.7998 13.4878 76.8998 0.88784 95.4998 7.78784C103.7 10.8878 111.9 19.0878 115 27.2878C119.3 38.8878 116.3 52.2878 107.5 61.0878C104.3 64.2878 104.1 64.8878 105.2 66.6878C105.9 67.8878 106.7 68.7878 107 68.7878C108.7 68.7878 116.3 59.7878 118.5 55.3878C125.5 40.8878 123.4 24.7878 112.8 13.2878C106.4 6.28784 101 3.08784 92.3998 1.28784C84.2998 -0.412163 84.1998 -0.412163 76.9998 1.18784Z" fill="black"/>
<path d="M20.4 45.2878C19 48.8878 20.7 49.7878 29 49.7878H37V46.7878V43.7878H29C22.8 43.7878 20.8 44.0878 20.4 45.2878Z" fill="black"/>
<path d="M58 46.7879V49.8879L64.8 49.5879C71.2 49.2879 71.5 49.1879 71.5 46.7879C71.5 44.3879 71.2 44.2879 64.7 43.9879L58 43.6879V46.7879Z" fill="black"/>
<path d="M11 55.7878V58.7878H26H41V55.7878V52.7878H26H11V55.7878Z" fill="black"/>
<path d="M51 55.7878V58.7878H66H81V55.7878V52.7878H66H51V55.7878Z" fill="black"/>
<path d="M5 64.7878V67.7878H46H87V64.7878V61.7878H46H5V64.7878Z" fill="black"/>
<path d="M2 73.7878V76.7878H51.5H101V73.7878V70.7878H51.5L2 70.8878V73.7878Z" fill="black"/>
<path d="M0 82.9878V85.7878H53.6H107.1L106.8 83.2878L106.5 80.7878L53.2 80.4878L0 80.2878V82.9878Z" fill="black"/>
<path d="M3 92.2878V94.7878H52H101V92.2878V89.7878H52H3V92.2878Z" fill="black"/>
<path d="M11 101.288V103.788H52.5H94V101.288V98.7878H52.5H11V101.288Z" fill="black"/>
</svg>
