<svg width="129" height="116" viewBox="0 0 129 116" fill="none" xmlns="http://www.w3.org/2000/svg">
<path d="M55.5999 0.855396C40.9999 2.95539 27.3999 11.0554 18.0999 23.1554C13.5999 28.8554 8.6999 39.6554 7.5999 45.9554L6.8999 49.7554H63.9999C128.8 49.7554 122.4 50.7554 119.4 40.6554C113.8 21.4554 94.9999 4.8554 74.4999 1.25539C65.5999 -0.344604 63.9999 -0.344604 55.5999 0.855396ZM76.4999 7.25539C86.1999 9.75539 92.9999 13.6554 100.8 21.3554C106.2 26.7554 108.9 30.3554 111.4 35.8554C113.3 39.9554 114.6 43.5554 114.4 43.9554C114.1 44.4554 91.3999 44.7554 63.8999 44.7554C22.3999 44.7554 13.9999 44.5554 13.9999 43.3554C13.9999 42.6554 15.5999 38.7554 17.5999 34.7554C28.4999 13.0554 53.4999 1.3554 76.4999 7.25539Z" fill="black"/>
<path d="M63.8 55.5552L0 55.7552V58.1552C0 60.2552 0.6 60.6552 3.3 60.9552C6.4 61.2552 6.5 61.4552 7.1 66.3552C9.9 89.1552 27.9 108.855 50.8 114.355C58.4 116.155 71.3 116.055 78.4 114.255C100.1 108.555 117.4 89.7552 121.2 67.9552L122.4 60.7552H125.7C128.5 60.7552 129 60.4552 129 58.3552C129 56.9552 128.7 55.7552 128.3 55.5552C127.8 55.3552 98.8 55.3552 63.8 55.5552ZM61 71.5552V82.2552L50.1 93.1552L39.3 103.955L36.2 102.355C32 100.155 23.9 92.0552 20.5 86.7552C16.5 80.4552 13.3 72.1552 12.5 65.9552L11.8 60.7552H36.4H61V71.5552ZM116 64.1552C116 69.7552 112.2 80.1552 107.8 86.7552C104.1 92.3552 91.9 103.755 89.7 103.755C89.2 103.755 83.9 98.8552 77.9 92.8552L67 81.9552V71.3552V60.7552H91.5H116V64.1552ZM74.1 96.9552C84.7 107.655 84.7 107.755 72.1 109.755C64.1 110.955 53.8 110.155 47.4 107.755L44.6 106.655L54 97.2552C59.2 92.0552 63.8 87.7552 64.2 87.7552C64.7 87.7552 69.1 91.8552 74.1 96.9552Z" fill="black"/>
</svg>
