<svg width="110" height="122" viewBox="0 0 110 122" fill="none" xmlns="http://www.w3.org/2000/svg">
<path d="M33.7106 2.5387C21.1106 8.83869 17.0106 21.7387 21.0106 42.6387C22.9106 52.6387 22.9106 56.4387 20.8106 63.0387C19.4106 67.6387 17.7106 69.8387 10.3106 77.0387C3.11056 83.9387 1.21056 86.4387 0.410559 89.7387C-1.58944 98.8387 3.91056 111.639 12.7106 117.939C18.1106 121.939 23.7106 122.039 29.1106 118.239C40.2106 110.739 47.7106 110.039 61.5106 115.439C70.6106 119.039 77.1106 119.839 81.9106 118.039C86.4106 116.239 94.8106 106.639 98.8106 98.8387C105.511 85.2387 108.411 68.4387 105.111 62.0387C102.711 57.5387 101.011 56.7387 90.8106 55.9387C78.9106 55.0387 74.2106 53.0387 70.0106 47.1387C67.1106 42.9387 67.0106 42.4387 66.7106 30.3387C66.6106 22.7387 66.0106 16.6387 65.2106 14.6387C63.0106 9.4387 58.4106 4.83869 53.0106 2.33869C46.3106 -0.861305 40.3106 -0.761307 33.7106 2.5387ZM36.5106 15.9387C36.5106 17.2387 37.2106 17.9387 38.5106 17.9387C40.0106 17.9387 40.5106 18.6387 40.5106 20.4387C40.5106 22.2387 40.0106 22.9387 38.5106 22.9387C37.2106 22.9387 36.5106 23.6387 36.5106 24.9387C36.5106 26.4387 35.8106 26.9387 34.0106 26.9387C32.2106 26.9387 31.5106 26.4387 31.5106 24.9387C31.5106 23.6387 30.8106 22.9387 29.5106 22.9387C28.0106 22.9387 27.5106 22.2387 27.5106 20.4387C27.5106 18.6387 28.0106 17.9387 29.5106 17.9387C30.8106 17.9387 31.5106 17.2387 31.5106 15.9387C31.5106 14.4387 32.2106 13.9387 34.0106 13.9387C35.8106 13.9387 36.5106 14.4387 36.5106 15.9387ZM56.5106 15.9387C56.5106 17.2387 57.2106 17.9387 58.5106 17.9387C60.0106 17.9387 60.5106 18.6387 60.5106 20.4387C60.5106 22.2387 60.0106 22.9387 58.5106 22.9387C57.2106 22.9387 56.5106 23.6387 56.5106 24.9387C56.5106 26.4387 55.8106 26.9387 54.0106 26.9387C52.2106 26.9387 51.5106 26.4387 51.5106 24.9387C51.5106 23.6387 50.8106 22.9387 49.5106 22.9387C48.0106 22.9387 47.5106 22.2387 47.5106 20.4387C47.5106 18.6387 48.0106 17.9387 49.5106 17.9387C50.8106 17.9387 51.5106 17.2387 51.5106 15.9387C51.5106 14.4387 52.2106 13.9387 54.0106 13.9387C55.8106 13.9387 56.5106 14.4387 56.5106 15.9387ZM36.5106 35.9387C36.5106 37.2387 37.2106 37.9387 38.5106 37.9387C40.0106 37.9387 40.5106 38.6387 40.5106 40.4387C40.5106 42.2387 40.0106 42.9387 38.5106 42.9387C37.2106 42.9387 36.5106 43.6387 36.5106 44.9387C36.5106 46.4387 35.8106 46.9387 34.0106 46.9387C32.2106 46.9387 31.5106 46.4387 31.5106 44.9387C31.5106 43.6387 30.8106 42.9387 29.5106 42.9387C28.0106 42.9387 27.5106 42.2387 27.5106 40.4387C27.5106 38.6387 28.0106 37.9387 29.5106 37.9387C30.8106 37.9387 31.5106 37.2387 31.5106 35.9387C31.5106 34.4387 32.2106 33.9387 34.0106 33.9387C35.8106 33.9387 36.5106 34.4387 36.5106 35.9387ZM56.5106 35.9387C56.5106 37.2387 57.2106 37.9387 58.5106 37.9387C60.0106 37.9387 60.5106 38.6387 60.5106 40.4387C60.5106 42.2387 60.0106 42.9387 58.5106 42.9387C57.2106 42.9387 56.5106 43.6387 56.5106 44.9387C56.5106 46.4387 55.8106 46.9387 54.0106 46.9387C52.2106 46.9387 51.5106 46.4387 51.5106 44.9387C51.5106 43.6387 50.8106 42.9387 49.5106 42.9387C48.0106 42.9387 47.5106 42.2387 47.5106 40.4387C47.5106 38.6387 48.0106 37.9387 49.5106 37.9387C50.8106 37.9387 51.5106 37.2387 51.5106 35.9387C51.5106 34.4387 52.2106 33.9387 54.0106 33.9387C55.8106 33.9387 56.5106 34.4387 56.5106 35.9387ZM36.5106 55.9387C36.5106 57.2387 37.2106 57.9387 38.5106 57.9387C40.0106 57.9387 40.5106 58.6387 40.5106 60.4387C40.5106 62.2387 40.0106 62.9387 38.5106 62.9387C37.2106 62.9387 36.5106 63.6387 36.5106 64.9387C36.5106 66.4387 35.8106 66.9387 34.0106 66.9387C32.2106 66.9387 31.5106 66.4387 31.5106 64.9387C31.5106 63.6387 30.8106 62.9387 29.5106 62.9387C28.0106 62.9387 27.5106 62.2387 27.5106 60.4387C27.5106 58.6387 28.0106 57.9387 29.5106 57.9387C30.8106 57.9387 31.5106 57.2387 31.5106 55.9387C31.5106 54.4387 32.2106 53.9387 34.0106 53.9387C35.8106 53.9387 36.5106 54.4387 36.5106 55.9387ZM56.5106 55.9387C56.5106 57.2387 57.2106 57.9387 58.5106 57.9387C60.0106 57.9387 60.5106 58.6387 60.5106 60.4387C60.5106 62.2387 60.0106 62.9387 58.5106 62.9387C57.2106 62.9387 56.5106 63.6387 56.5106 64.9387C56.5106 66.4387 55.8106 66.9387 54.0106 66.9387C52.2106 66.9387 51.5106 66.4387 51.5106 64.9387C51.5106 63.6387 50.8106 62.9387 49.5106 62.9387C48.0106 62.9387 47.5106 62.2387 47.5106 60.4387C47.5106 58.6387 48.0106 57.9387 49.5106 57.9387C50.8106 57.9387 51.5106 57.2387 51.5106 55.9387C51.5106 54.4387 52.2106 53.9387 54.0106 53.9387C55.8106 53.9387 56.5106 54.4387 56.5106 55.9387ZM36.5106 75.9387C36.5106 77.2387 37.2106 77.9387 38.5106 77.9387C40.0106 77.9387 40.5106 78.6387 40.5106 80.4387C40.5106 82.2387 40.0106 82.9387 38.5106 82.9387C37.2106 82.9387 36.5106 83.6387 36.5106 84.9387C36.5106 86.4387 35.8106 86.9387 34.0106 86.9387C32.2106 86.9387 31.5106 86.4387 31.5106 84.9387C31.5106 83.6387 30.8106 82.9387 29.5106 82.9387C28.0106 82.9387 27.5106 82.2387 27.5106 80.4387C27.5106 78.6387 28.0106 77.9387 29.5106 77.9387C30.8106 77.9387 31.5106 77.2387 31.5106 75.9387C31.5106 74.4387 32.2106 73.9387 34.0106 73.9387C35.8106 73.9387 36.5106 74.4387 36.5106 75.9387ZM56.5106 75.9387C56.5106 77.2387 57.2106 77.9387 58.5106 77.9387C60.0106 77.9387 60.5106 78.6387 60.5106 80.4387C60.5106 82.2387 60.0106 82.9387 58.5106 82.9387C57.2106 82.9387 56.5106 83.6387 56.5106 84.9387C56.5106 86.4387 55.8106 86.9387 54.0106 86.9387C52.2106 86.9387 51.5106 86.4387 51.5106 84.9387C51.5106 83.6387 50.8106 82.9387 49.5106 82.9387C48.0106 82.9387 47.5106 82.2387 47.5106 80.4387C47.5106 78.6387 48.0106 77.9387 49.5106 77.9387C50.8106 77.9387 51.5106 77.2387 51.5106 75.9387C51.5106 74.4387 52.2106 73.9387 54.0106 73.9387C55.8106 73.9387 56.5106 74.4387 56.5106 75.9387ZM76.5106 75.9387C76.5106 77.2387 77.2106 77.9387 78.5106 77.9387C80.0106 77.9387 80.5106 78.6387 80.5106 80.4387C80.5106 82.2387 80.0106 82.9387 78.5106 82.9387C77.2106 82.9387 76.5106 83.6387 76.5106 84.9387C76.5106 86.4387 75.8106 86.9387 74.0106 86.9387C72.2106 86.9387 71.5106 86.4387 71.5106 84.9387C71.5106 83.6387 70.8106 82.9387 69.5106 82.9387C68.0106 82.9387 67.5106 82.2387 67.5106 80.4387C67.5106 78.6387 68.0106 77.9387 69.5106 77.9387C70.8106 77.9387 71.5106 77.2387 71.5106 75.9387C71.5106 74.4387 72.2106 73.9387 74.0106 73.9387C75.8106 73.9387 76.5106 74.4387 76.5106 75.9387ZM16.5106 95.9387C16.5106 97.2387 17.2106 97.9387 18.5106 97.9387C20.0106 97.9387 20.5106 98.6387 20.5106 100.439C20.5106 102.239 20.0106 102.939 18.5106 102.939C17.2106 102.939 16.5106 103.639 16.5106 104.939C16.5106 106.439 15.8106 106.939 14.0106 106.939C12.2106 106.939 11.5106 106.439 11.5106 104.939C11.5106 103.639 10.8106 102.939 9.51056 102.939C8.01056 102.939 7.51056 102.239 7.51056 100.439C7.51056 98.6387 8.01056 97.9387 9.51056 97.9387C10.8106 97.9387 11.5106 97.2387 11.5106 95.9387C11.5106 94.4387 12.2106 93.9387 14.0106 93.9387C15.8106 93.9387 16.5106 94.4387 16.5106 95.9387ZM36.5106 95.9387C36.5106 97.2387 37.2106 97.9387 38.5106 97.9387C40.0106 97.9387 40.5106 98.6387 40.5106 100.439C40.5106 102.239 40.0106 102.939 38.5106 102.939C37.2106 102.939 36.5106 103.639 36.5106 104.939C36.5106 106.439 35.8106 106.939 34.0106 106.939C32.2106 106.939 31.5106 106.439 31.5106 104.939C31.5106 103.639 30.8106 102.939 29.5106 102.939C28.0106 102.939 27.5106 102.239 27.5106 100.439C27.5106 98.6387 28.0106 97.9387 29.5106 97.9387C30.8106 97.9387 31.5106 97.2387 31.5106 95.9387C31.5106 94.4387 32.2106 93.9387 34.0106 93.9387C35.8106 93.9387 36.5106 94.4387 36.5106 95.9387ZM56.5106 95.9387C56.5106 97.2387 57.2106 97.9387 58.5106 97.9387C60.0106 97.9387 60.5106 98.6387 60.5106 100.439C60.5106 102.239 60.0106 102.939 58.5106 102.939C57.2106 102.939 56.5106 103.639 56.5106 104.939C56.5106 106.439 55.8106 106.939 54.0106 106.939C52.2106 106.939 51.5106 106.439 51.5106 104.939C51.5106 103.639 50.8106 102.939 49.5106 102.939C48.0106 102.939 47.5106 102.239 47.5106 100.439C47.5106 98.6387 48.0106 97.9387 49.5106 97.9387C50.8106 97.9387 51.5106 97.2387 51.5106 95.9387C51.5106 94.4387 52.2106 93.9387 54.0106 93.9387C55.8106 93.9387 56.5106 94.4387 56.5106 95.9387ZM76.5106 95.9387C76.5106 97.2387 77.2106 97.9387 78.5106 97.9387C80.0106 97.9387 80.5106 98.6387 80.5106 100.439C80.5106 102.239 80.0106 102.939 78.5106 102.939C77.2106 102.939 76.5106 103.639 76.5106 104.939C76.5106 106.439 75.8106 106.939 74.0106 106.939C72.2106 106.939 71.5106 106.439 71.5106 104.939C71.5106 103.639 70.8106 102.939 69.5106 102.939C68.0106 102.939 67.5106 102.239 67.5106 100.439C67.5106 98.6387 68.0106 97.9387 69.5106 97.9387C70.8106 97.9387 71.5106 97.2387 71.5106 95.9387C71.5106 94.4387 72.2106 93.9387 74.0106 93.9387C75.8106 93.9387 76.5106 94.4387 76.5106 95.9387Z" fill="black"/>
<path d="M80.5108 15.5388C80.5108 16.4388 79.6108 17.3388 78.5108 17.6388C75.8108 18.3388 75.8108 22.5388 78.5108 23.2388C79.6108 23.5388 80.4108 24.3388 80.3108 25.1388C80.1108 25.9388 81.1108 26.5388 82.8108 26.7388C85.0108 27.0388 85.5108 26.6388 85.5108 25.0388C85.5108 23.6388 86.1108 22.9388 87.5108 22.9388C88.9108 22.9388 89.5108 22.2388 89.5108 20.5388C89.5108 19.0388 88.8108 17.9388 87.5108 17.6388C86.4108 17.3388 85.5108 16.4388 85.5108 15.5388C85.5108 14.5388 84.6108 13.9388 83.0108 13.9388C81.4108 13.9388 80.5108 14.5388 80.5108 15.5388Z" fill="black"/>
<path d="M100.511 15.5387C100.511 16.4387 99.6107 17.3387 98.5107 17.6387C97.2107 17.9387 96.5107 19.0387 96.5107 20.4387C96.5107 21.8387 97.2107 22.9387 98.5107 23.2387C99.6107 23.5387 100.511 24.4387 100.511 25.3387C100.511 26.3387 101.411 26.9387 103.011 26.9387C104.811 26.9387 105.511 26.4387 105.511 24.9387C105.511 23.6387 106.211 22.9387 107.411 22.9387C108.711 22.9387 109.311 22.2387 109.311 20.5387C109.311 19.0387 108.611 17.9387 107.411 17.6387C106.311 17.3387 105.511 16.4387 105.511 15.5387C105.511 14.5387 104.611 13.9387 103.011 13.9387C101.411 13.9387 100.511 14.5387 100.511 15.5387Z" fill="black"/>
<path d="M100.511 35.5388C100.511 36.4388 99.6108 37.3388 98.5108 37.6388C95.8108 38.3388 95.8108 42.5388 98.5108 43.2388C99.6108 43.5388 100.411 44.3388 100.311 45.1388C100.111 45.9388 101.111 46.5388 102.811 46.7388C105.011 47.0388 105.511 46.6388 105.511 45.0388C105.511 43.6388 106.111 42.9388 107.511 42.9388C109.011 42.9388 109.511 42.2388 109.511 40.4388C109.511 38.6388 109.011 37.9388 107.511 37.9388C106.211 37.9388 105.511 37.2388 105.511 35.9388C105.511 34.4388 104.811 33.9388 103.011 33.9388C101.411 33.9388 100.511 34.5388 100.511 35.5388Z" fill="black"/>
</svg>
