<svg width="124" height="143" viewBox="0 0 124 143" fill="none" xmlns="http://www.w3.org/2000/svg">
<path d="M60.6 2.19991C59.8 3.49991 55.2 11.3999 50.4 19.6999L41.6 34.9999L20.8 35.1999L0 35.4999L11.6 55.4999C17.9 66.4999 29.8 86.9999 37.8 101C45.9 115 54.7 130.2 57.3 134.8C61.6 142.2 62.3 142.9 63.4 141.3C64 140.3 68.7 132.2 73.8 123.2L83.1 107H103.5C114.7 107 123.9 106.8 123.9 106.5C123.9 106.3 120.1 99.5999 115.5 91.7999C111 83.8999 106.4 76.0999 105.5 74.2999L103.9 71.0999L113.4 54.5999C118.6 45.4999 123.2 37.3999 123.5 36.4999C124.1 35.1999 121.8 34.9999 103.8 34.9999C85.3 35.0999 83.3 34.9999 82.1 33.2999C81.4 32.2999 76.7 24.3999 71.7 15.6999C66.7 7.09991 62.5 -9.15527e-05 62.3 -9.15527e-05C62.1 -9.15527e-05 61.3 0.999908 60.6 2.19991ZM69.3 22.8999C72.9 29.0999 75.9 34.3999 75.9 34.5999C75.9 34.7999 69.6 34.9999 62 34.9999H48L55.1 22.9999C59 16.2999 62.3 10.9999 62.4 11.1999C62.6 11.3999 65.7 16.5999 69.3 22.8999ZM101.9 63.1999C73.4 112.9 63 130.5 62.2 130.7C61.8 130.9 60.5 129.3 59.3 127.2C58.2 125.2 55.9 121 54.1 118L51 112.4L54.8 106C65.1 88.3999 81.9 58.9999 81.9 58.4999C81.9 58.1999 81.1 58.2999 80.2 58.7999C79.2 59.2999 77.8 59.4999 77.2 59.2999C76.5 58.9999 75.9 59.3999 75.9 60.1999C75.9 61.1999 75.6 61.0999 74.9 59.9999C74.1 58.6999 69.6 58.3999 46.7 58.1999L19.4 57.8999L17.5 54.6999C16.5 52.8999 14.3 49.0999 12.7 46.1999L9.7 40.9999H62.2H114.8L101.9 63.1999ZM65.9 61.9999C67.3 63.0999 68 63.9999 67.5 63.9999C67.1 63.9999 67.7 64.8999 69 65.9999C70.3 66.9999 70.9 67.8999 70.4 67.9999C69.8 67.9999 67.9 66.3999 66 64.4999C64.2 62.5999 62.3 60.9999 61.7 60.9999C60.1 60.9999 58.2 63.3999 58.6 64.9999C58.9 65.8999 58.6 65.7999 57.9 64.6999C55.2 60.4999 61.4 58.3999 65.9 61.9999ZM39.2 62.6999C38.5 62.8999 37.3 62.8999 36.7 62.6999C36 62.3999 36.5 62.1999 37.9 62.1999C39.3 62.1999 39.8 62.3999 39.2 62.6999ZM56.9 67.0999C56.9 67.5999 56.4 67.7999 55.9 67.4999C55.3 67.0999 54 67.8999 52.9 69.1999C51.1 71.1999 51 71.2999 51.6 69.4999C52.6 66.3999 56.9 64.3999 56.9 67.0999ZM60.3 69.0999C59.7 70.1999 57.9 69.2999 57.9 67.9999C57.9 67.4999 58.6 67.2999 59.4 67.5999C60.2 67.9999 60.6 68.5999 60.3 69.0999ZM41.6 70.1999C41.3 70.9999 41 70.6999 41 69.5999C40.9 68.4999 41.2 67.8999 41.5 68.2999C41.8 68.5999 41.9 69.4999 41.6 70.1999ZM31.3 70.5999C31.6 71.3999 31.5 71.7999 30.9 71.4999C30.3 71.1999 29.9 70.4999 29.9 69.8999C29.9 68.4999 30.6 68.7999 31.3 70.5999ZM62.9 70.9999C62.9 71.4999 62.4 71.9999 61.8 71.9999C61.3 71.9999 61.1 71.4999 61.4 70.9999C61.7 70.3999 62.2 69.9999 62.5 69.9999C62.7 69.9999 62.9 70.3999 62.9 70.9999ZM56.3 76.4999C56.6 77.3999 56.3 77.6999 55.4 77.3999C54.7 77.0999 53.8 76.1999 53.5 75.4999C53.2 74.5999 53.5 74.2999 54.4 74.5999C55.1 74.8999 56 75.7999 56.3 76.4999ZM49.4 80.9999C52.1 83.6999 53.9 85.9999 53.3 85.9999C52.8 85.9999 50.2 83.6999 47.5 80.9999C44.8 78.1999 43.1 75.9999 43.6 75.9999C44.1 75.9999 46.7 78.1999 49.4 80.9999ZM107.7 88.9999C111.1 94.9999 113.9 100.4 113.9 101C113.9 101.6 109.1 102 100.3 102C87.7 102 86.7 101.9 87.3 100.2C88.5 97.1999 100.1 77.9999 100.8 77.9999C101.1 77.9999 104.2 82.9999 107.7 88.9999ZM36.4 85.5999L33.7 89.0999L36.6 91.5999C41.8 95.9999 45.8 93.9999 43.7 87.9999C43 86.1999 43.1 85.7999 43.9 86.5999C44.5 87.1999 45.1 88.9999 45.2 90.4999C45.4 92.7999 44.8 93.6999 42.6 94.7999C40.1 95.9999 39.6 95.8999 37 93.7999C34.3 91.5999 29.9 85.7999 29.9 84.3999C29.9 84.0999 30.8 84.7999 31.9 86.0999C33.6 88.1999 34 88.2999 33.8 86.3999C33.8 85.7999 37.9 81.9999 38.7 81.9999C38.9 81.9999 37.9 83.5999 36.4 85.5999Z" fill="black"/>
<path d="M37.0315 82.5759C37.0842 84.6821 37.3243 86.7962 37.766 88.8574C37.7933 88.985 38.2304 91.584 38.3652 91.6019C39.581 91.764 41.6136 86.6523 39.7278 86.0936C39.0405 85.8899 38.4159 85.8654 38.4618 84.9242C38.483 84.4895 38.8849 83.2492 38.5198 82.8658C38.1499 82.4774 35.4291 88.631 35.9879 85.4461C36.0505 85.089 36.4385 83.8411 35.9589 83.5713C35.3473 83.2273 35.15 84.1895 35.1278 84.557C35.0634 85.6199 34.2867 86.9501 34.7122 87.9683C35.1779 89.0825 37.1838 89.2262 37.9593 90.1427C38.225 90.4567 38.1315 91.1289 38.3362 91.5246C38.7251 92.2766 38.9596 92.8485 39.8341 93.0902C40.3161 93.2234 40.9349 93.659 41.4189 93.3801C42.0072 93.0411 42.2935 92.5231 42.6752 92.0078C43.1453 91.3732 43.8558 90.8603 44.3277 90.1524C44.8898 89.3092 45.0187 88.3303 45.0912 87.2919C45.1212 86.8619 45.0482 86.4108 44.8496 86.0259C44.8105 85.9502 44.5016 85.6674 44.492 85.5717C44.4583 85.2348 44.8592 86.1802 44.8592 86.5188C44.8592 87.6879 45.8306 89.4562 45.2651 90.5872C45.0261 91.0653 44.6981 91.5129 44.434 91.9788C43.7886 93.1178 44.1634 91.2406 44.1634 90.6742C44.1634 89.7851 44.1634 88.8961 44.1634 88.007C44.1634 87.8496 44.1634 86.2574 44.1634 87.0309C44.1634 87.8589 43.8603 89.4143 44.3084 90.1524C44.9438 91.1988 46.3923 88.5552 46.5987 88.1423" stroke="black" stroke-width="3" stroke-linecap="round"/>
<path d="M38.0751 71.6172C38.8608 70.6913 40.1054 70.4427 40.8777 69.4718C41.0085 69.3073 40.9834 68.9246 41.2352 68.9403C41.5932 68.9627 42.0906 68.9534 42.4239 69.0853C42.8755 69.264 42.6777 69.6671 42.4335 69.9357C42.1624 70.2339 41.117 70.0536 40.8003 70.0517C38.6268 70.038 36.461 69.8777 34.2869 69.8777C33.5564 69.8777 32.8788 70.0604 32.1416 70.0517C31.2053 70.0405 30.1582 70.0677 29.2424 69.8584C28.6376 69.7201 29.6515 69.2926 29.8029 69.2012C30.6529 68.6883 31.6577 68.5357 32.3348 67.7517C32.6897 67.3407 32.9888 66.9006 33.4558 66.6017C33.7276 66.4278 34.1862 66.5109 34.1613 66.1378C34.1385 65.7962 34.8096 64.3808 35.06 64.1471C35.7946 63.4615 36.0809 63.0937 37.0991 63.0937C39.2191 63.0937 41.7674 62.714 43.8155 63.2483C45.6984 63.7395 47.7847 65.1188 47.9516 67.1718C48.1728 69.8935 47.8194 72.2313 46.9659 74.8063C46.862 75.1197 45.9976 77.0375 46.1734 77.3672C46.511 78.0001 47.7532 75.9036 47.8163 75.7533C48.4345 74.2809 48.5953 71.9065 46.3764 72.6319C43.9835 73.4142 44.0087 75.5614 42.5688 77.1932C42.3917 77.3939 43.2148 76.8496 43.3902 76.8163C44.0962 76.6824 45.1493 77.976 45.6033 78.3722C46.6832 79.3147 46.7717 80.1724 47.2944 81.4356C47.6926 82.398 48.1523 83.0152 49.1209 83.4457C50.0067 83.8394 51.0908 83.8312 51.8268 84.3831C52.4196 84.8277 52.6868 84.2034 52.6868 85.2722C52.6868 85.7548 52.9406 86.0307 53.0154 86.4608C53.0299 86.5441 51.954 85.5259 51.8558 85.3785C51.5153 84.8678 51.4893 84.5115 51.4692 83.9289C51.4453 83.2346 50.9852 83.1473 50.4642 82.7886C49.5485 82.1581 48.6741 82.1425 47.7196 81.6482C47.1578 81.3573 46.7751 80.9044 46.3667 80.4306C46.1294 80.1553 45.9336 79.6379 45.9028 80.2373C45.8458 81.3495 45.501 82.4065 45.41 83.5134C45.3511 84.2292 45.4458 84.9558 45.381 85.6684C45.3352 86.1724 43.9288 87.0801 43.8638 86.2675C43.7247 84.5297 47.1426 83.14 48.2222 82.286C49.1197 81.5761 49.903 80.6774 50.7348 79.8894C51.2429 79.408 51.9266 78.7802 52.136 78.0823C52.43 77.1024 52.8999 76.985 51.6721 77.0966C50.9886 77.1587 49.0281 77.5028 49.6137 77.1449C50.3092 76.7199 51.3783 76.6563 52.165 76.4878" stroke="black" stroke-width="3" stroke-linecap="round"/>
<path d="M58.0795 74.7481C56.4634 75.7113 51.3309 78.0286 52.8997 76.9901C54.2783 76.0776 55.689 75.2179 57.0552 74.2842C58.8595 73.0512 61.7391 71.5548 62.8534 69.5683C63.1302 69.075 61.6766 69.6728 61.2106 69.9935C59.5995 71.1022 58.1585 72.463 56.6686 73.7237C56.2214 74.1021 54.7985 75.6861 54.1077 75.7628C53.927 75.7829 54.2798 75.4421 54.3783 75.2893C54.7353 74.7352 55.0667 74.1633 55.451 73.6271C55.7052 73.2723 58.5863 69.712 56.7652 70.5927C54.4106 71.7314 47.241 74.599 49.8363 74.2746C50.5065 74.1908 51.5503 72.811 52.001 72.3998C52.655 71.803 54.1613 70.8829 54.2526 69.8775C54.3523 68.7816 52.3756 69.7523 51.9333 69.4427C51.5054 69.1431 53.5682 66.6313 53.3829 66.8431C52.8269 67.4785 52.2064 67.9608 51.5274 68.457C50.7529 69.023 50.7518 69.4415 51.7787 68.9885C52.9068 68.4908 53.892 67.7727 54.8711 67.0364C55.3775 66.6556 56.0251 66.4041 56.5043 66.012C56.6656 65.8801 56.8577 65.3138 57.0745 65.3259C57.4211 65.3451 57.8139 65.6699 57.9829 65.954C58.9373 67.5592 60.0475 68.494 59.2102 70.4477C58.6005 71.8704 59.8388 70.5859 60.4955 70.1481C62.1567 69.0407 63.2404 67.1472 64.9988 66.1473C66.8955 65.0688 69.1681 64.6874 71.1353 63.7217C71.6442 63.4719 72.6222 62.3669 72.4786 63.5767C72.3637 64.5455 71.7916 64.5571 71.4542 65.3162C71.3148 65.6299 71.4743 65.9966 71.2223 66.2826C70.8719 66.6804 69.9552 66.648 69.4732 66.8334C69.2221 66.93 66.7478 67.5932 66.9316 68.0221C67.0717 68.3489 69.1343 66.8277 69.2122 66.3213C69.381 65.2242 69.7675 65.1809 68.4391 65.1809C67.8538 65.1809 66.571 65.4971 67.0475 64.6591C67.9149 63.1337 66.2525 63.4414 65.2597 63.4414C64.6927 63.4414 63.4614 63.5626 63.298 62.7456C63.2035 62.2733 63.9766 62.4745 63.8681 62.2141C63.4589 61.2318 60.4925 62.0571 59.8383 62.3591C59.3091 62.6034 58.2535 62.7328 58.2535 63.5381C58.2535 64.3147 58.135 64.6826 57.7316 65.3549" stroke="black" stroke-width="3" stroke-linecap="round"/>
<path d="M57.7316 64.6591C57.7316 63.1374 57.925 62.5523 59.2005 61.7019C59.8571 61.2643 60.5223 61.354 61.2879 61.354C62.4518 61.354 63.7104 61.5444 64.1871 62.736C64.5979 63.763 65.1971 63.7893 66.1778 63.7893C66.814 63.7893 68.4442 63.2675 66.9509 63.2675C65.9737 63.2675 65.0302 63.1853 65.4144 61.9049C65.4947 61.6371 65.9409 61.541 65.6946 61.8759C65.1961 62.5539 64.5753 62.8941 64.2837 63.7507C64.0838 64.3379 63.4698 65.1289 63.5106 65.7414C63.5328 66.074 63.8021 66.5877 63.5299 66.8817C62.8724 67.5919 63.0172 68.2099 61.9934 68.4956C61.4324 68.6522 61.1562 68.7995 60.7854 69.2204C60.2721 69.803 59.4982 70.0635 58.8913 70.5347C58.4918 70.8448 58.1391 71.1705 58.0892 71.6943C58.0388 72.2239 58.6058 72.4416 58.4757 72.9989C58.1848 74.2459 57.3336 75.0836 56.4947 76.0624C56.0845 76.5409 55.3552 77.0952 55.4316 77.8019C55.4711 78.1667 55.5019 78.521 55.393 78.8842C55.283 79.2509 54.1072 81.1671 55.2287 80.9233C56.3261 80.6847 56.8097 79.6669 57.1325 78.6136C57.3067 78.0451 57.4353 77.7462 57.7896 77.2607C58.0681 76.879 58.2508 76.62 57.7316 77.0094" stroke="black" stroke-width="3" stroke-linecap="round"/>
<path d="M46.0767 93.7087C45.8918 94.5172 45.6129 97.3235 44.1922 95.6897C43.9262 95.3838 43.8419 94.9745 43.5351 94.6944C43.1279 94.3226 42.6433 94.17 42.2498 93.7473C41.8859 93.3565 40.8007 92.9049 40.6069 92.462C40.4309 92.0597 40.4023 90.5838 41.1288 91.3507C42.1195 92.3964 41.7986 94.2849 41.5443 95.5351C41.5071 95.7182 41.1301 98.1707 40.4716 97.2843C39.98 96.6225 39.6956 95.5221 39.37 94.7523C39.1269 94.1778 38.7106 93.7968 38.3263 93.3221C38.0381 92.9661 37.9258 92.3841 37.5242 92.1431C36.4737 91.5128 36.994 90.9771 36.5675 90.0557C36.2122 89.2884 35.6495 88.8355 35.4561 87.9973C35.3463 87.5214 34.8249 86.9031 34.5381 86.4994C34.0865 85.8639 32.9158 84.9565 32.7309 84.2478C32.5689 83.6266 32.1598 83.8353 31.6003 83.3877C31.2634 83.1182 29.961 82.9238 30.3923 82.9238C32.5237 82.9238 33.1894 85.707 35.2918 85.707" stroke="black" stroke-width="3" stroke-linecap="round"/>
<path d="M36.8578 92.839C36.8578 91.3117 36.7841 90.5006 35.8141 89.3213C35.1183 88.4755 34.6417 87.6141 33.8137 86.8474C33.4703 86.5295 33.0706 86.2593 32.799 85.8713C32.5476 85.5123 32.5163 85.0798 32.1611 84.7987C31.4843 84.2628 33.3626 86.0388 33.9731 86.6493C35.6884 88.3646 37.4038 90.0799 39.1191 91.7953" stroke="black" stroke-width="3" stroke-linecap="round"/>
<path d="M34.0742 89.5337C34.3166 90.026 34.7173 90.6101 34.77 91.1765C34.7759 91.24 34.8611 92.1367 34.915 92.0559C35.0248 91.8913 34.5961 90.4452 34.5961 90.0555" stroke="black" stroke-width="3" stroke-linecap="round"/>
<path d="M35.988 88.3163C34.7727 88.0897 33.8918 87.3131 32.8569 86.7217C32.2162 86.3556 31.6591 85.6893 31.4653 85.0112" stroke="black" stroke-width="3" stroke-linecap="round"/>
<path d="M33.0307 89.8817C32.6799 89.1364 32.3103 88.3652 32.6828 87.6204" stroke="black" stroke-width="3" stroke-linecap="round"/>
<path d="M29.8994 83.7935C31.0334 84.6682 31.2447 85.0584 32.6826 84.8371" stroke="black" stroke-width="3" stroke-linecap="round"/>
<path d="M74.7784 62.0498C75.0553 62.0498 76.2587 62.1479 76.2087 61.5473C76.1996 61.4386 74.6966 61.5279 74.5175 61.5279C74.015 61.5279 73.5125 61.5279 73.0099 61.5279C72.9029 61.5279 73.6906 61.5279 73.8894 61.5279C74.9137 61.5279 77.9868 61.5279 76.9624 61.5279C75.8865 61.5279 74.8106 61.5279 73.7347 61.5279C73.0311 61.5279 74.0833 61.5222 74.2566 61.5279C75.3649 61.5649 76.37 62.0173 77.4456 62.2044C78.097 62.3177 77.5628 62.0877 77.2234 62.0594C76.5255 62.0013 75.8066 62.0498 75.107 62.0498C73.6983 62.0498 75.0947 62.2462 75.3969 61.7792C75.6527 61.3838 77.1034 60.0335 75.9961 60.3103" stroke="black" stroke-width="3" stroke-linecap="round"/>
<path d="M71.1255 61.18C72.0532 61.18 72.9809 61.18 73.9087 61.18C74.7803 61.18 75.4872 60.7534 76.344 60.6582" stroke="black" stroke-width="3" stroke-linecap="round"/>
<line x1="17.7109" y1="58.6001" x2="81.7109" y2="58.6001" stroke="black"/>
<path d="M78.4106 60.377C78.2261 60.4625 78.0446 60.5417 77.8474 60.5941C77.8403 60.5959 77.3769 60.6615 77.3829 60.6515C77.4316 60.5702 77.7507 60.5453 77.8348 60.5313C78.1803 60.4737 78.4825 60.2268 78.8302 60.1833" stroke="black" stroke-width="3" stroke-linecap="round"/>
<path d="M76.99 60.4416C76.822 60.4954 76.6225 60.4976 76.4627 60.56C76.32 60.6157 76.2416 60.6676 76.0825 60.6676C75.957 60.6676 75.8313 60.6695 75.7058 60.6676C75.4017 60.6629 75.1455 60.5112 74.8755 60.3878C74.6719 60.2947 74.4235 60.1833 74.1993 60.1833C73.9545 60.1833 73.7452 60.2107 73.5034 60.2479" stroke="black" stroke-width="3" stroke-linecap="round"/>
</svg>
