<svg width="113" height="112" viewBox="0 0 113 112" fill="none" xmlns="http://www.w3.org/2000/svg">
<path d="M47.6663 1.67076C39.8663 5.37076 34.4663 15.1708 35.8663 23.0708C36.9663 28.6708 40.6663 33.9708 50.9663 44.1708C60.8663 53.9708 60.8663 53.9708 62.7663 51.8708C64.5663 49.8708 64.4663 49.7708 53.9663 39.0708C48.1663 33.1708 42.8663 27.0708 42.3663 25.4708C39.8663 18.9708 42.1663 12.1708 48.4663 7.57076C54.0663 3.37076 64.3663 5.77076 68.3663 12.1708C69.9663 14.6708 70.2663 16.6708 69.9663 21.1708C69.6663 26.5708 69.3663 27.2708 64.4663 32.1708L59.1663 37.4708L61.2663 39.3708C63.2663 41.1708 63.3663 41.1708 68.2663 36.3708C74.4663 30.2708 76.7663 24.6708 75.9663 17.7708C75.1663 11.4708 72.4663 6.97076 67.1663 3.27076C61.8663 -0.429241 53.6663 -1.02924 47.6663 1.67076Z" fill="black"/>
<path d="M11.0664 37.8708C-3.03357 45.3708 -3.83357 65.4708 9.66643 73.3708C14.6664 76.2708 23.5664 76.7708 28.6664 74.3708C30.3664 73.5708 36.7664 67.9708 42.6664 61.9708C52.0664 52.4708 53.4664 50.7708 52.3664 49.4708C51.5664 48.5708 50.5664 47.8708 49.9664 47.8708C49.3664 47.8708 43.8664 52.7708 37.8664 58.7708C25.2664 71.0708 22.2664 72.4708 14.4664 69.2708C4.86643 65.4708 2.46643 54.2708 9.36643 46.3708C15.7664 39.0708 23.9664 39.6708 32.8664 47.9708C37.9664 52.8708 37.9664 52.8708 39.7664 50.8708C41.5664 48.8708 41.5664 48.7708 37.1664 44.2708C34.7664 41.6708 30.9664 38.7708 28.7664 37.7708C23.5664 35.3708 15.8664 35.3708 11.0664 37.8708Z" fill="black"/>
<path d="M82.7663 37.8709C80.5663 38.9709 74.0663 44.6709 68.4663 50.5709C58.9663 60.3709 58.2663 61.3709 59.8663 62.5709C60.8663 63.2709 61.9663 63.8709 62.3663 63.8709C62.7663 63.8709 67.8663 59.1709 73.6663 53.3709C86.1663 40.9709 89.6663 39.3709 97.1663 42.5709C107.666 46.8709 109.666 60.6709 100.766 67.6708C94.3663 72.6708 87.4663 71.6708 79.7663 64.6709C74.3663 59.7709 74.1663 59.6709 72.2663 61.3709C70.3663 63.0709 70.3663 63.1709 74.0663 67.0709C79.9663 73.3708 84.9663 75.8708 91.6663 75.8708C109.166 75.8708 118.266 57.4708 107.666 43.2709C102.666 36.4709 90.8663 33.9709 82.7663 37.8709Z" fill="black"/>
<path d="M48.9663 60.671C47.4663 62.371 47.9663 63.071 57.3663 72.371C68.6663 83.571 70.2663 86.071 70.2663 91.871C70.2663 96.871 68.2663 101.071 64.4663 103.671C54.1663 111.071 40.0663 102.771 41.5663 90.171C41.9663 86.671 43.0663 84.571 47.2663 79.771C51.9663 74.371 52.3663 73.571 51.0663 72.171C48.9663 70.171 46.4663 71.571 41.9663 77.071C36.8663 83.371 35.9663 85.771 35.9663 91.971C35.9663 98.871 38.9663 104.671 44.5663 108.571C50.1663 112.471 60.0663 112.971 65.7663 109.671C71.2663 106.371 75.4663 100.171 76.0663 94.071C76.8663 85.771 75.0663 82.471 62.9663 70.171C56.8663 63.971 51.6663 58.871 51.2663 58.871C50.8663 58.871 49.8663 59.671 48.9663 60.671Z" fill="black"/>
</svg>
