<svg width="111" height="124" viewBox="0 0 111 124" fill="none" xmlns="http://www.w3.org/2000/svg">
<path d="M32.8312 21.3L11.6312 42.5L27.1312 58L42.6312 73.5L38.7312 74.2C36.5312 74.6 33.3312 75.6 31.6312 76.5C28.6312 78.1 28.1312 78 23.6312 76.1C17.5312 73.5 11.4312 73.5 5.6312 76.1C0.231203 78.5 -0.768797 79.9 1.3312 82.2C2.8312 83.9 3.0312 83.9 6.1312 82C11.2312 78.9 19.3312 79.2 24.2312 82.8L28.1312 85.7L31.5312 83.1C34.0312 81.2 36.3312 80.5 41.0312 80.2C46.5312 79.9 47.5312 80.1 51.3312 82.9C53.7312 84.6 55.8312 85.5 56.1312 85C57.5312 82.7 64.8312 80 69.4312 80C73.2312 80 75.2312 80.6 78.4312 82.9L82.4312 85.9L84.8312 83.8C89.9312 79.3 98.4312 78.5 104.031 81.9L107.331 84L109.231 81.9C111.331 79.6 111.031 79.2 104.131 76C98.9312 73.5 92.6312 73.5 86.6312 76.1C82.1312 78 81.6312 78.1 78.6312 76.5C76.9312 75.6 73.7312 74.6 71.6312 74.2L67.7312 73.5L83.1312 58L98.6312 42.5L77.3312 21.2C65.7312 9.60002 55.7312 2.28882e-05 55.1312 2.28882e-05C54.5312 2.28882e-05 44.5312 9.60002 32.8312 21.3ZM73.5312 25.4L90.8312 42.8L73.1312 60.5L55.4312 78.3L37.5312 60.4L19.6312 42.5L36.8312 25.3C46.3312 15.8 54.5312 8.00002 55.1312 8.00002C55.7312 8.00002 63.9312 15.8 73.5312 25.4Z" fill="black"/>
<path d="M5.03095 88.9C-0.0690475 91.2 -1.06905 92.6 1.03095 94.9C2.63095 96.6 2.83095 96.6 7.33095 94.4C9.83095 93.1 13.131 92 14.531 92C17.731 92 24.631 95.1 26.531 97.3C27.731 98.8 28.131 98.8 30.731 96.6C37.231 91.1 45.331 90.9 51.831 96C55.031 98.6 55.631 98.8 56.731 97.4C58.731 95 65.2309 92 68.331 92C71.7309 92 78.631 95.1 80.531 97.4C81.831 99 82.031 98.9 84.031 97.1C86.831 94.5 92.831 92 96.331 92C97.831 92 101.031 93.1 103.331 94.4C107.331 96.7 107.531 96.7 109.131 95C111.331 92.6 110.431 91.3 105.231 88.9C99.731 86.4 91.431 86.4 86.131 89C82.031 91 82.031 91 78.131 89C75.631 87.7 72.2309 87 68.631 87C65.031 87 61.631 87.7 59.131 89C55.231 91 55.231 91 51.131 89C48.531 87.8 44.931 87 41.631 87C38.331 87 34.731 87.8 32.131 89C28.031 91 28.031 91 24.131 89C19.031 86.4 10.531 86.4 5.03095 88.9Z" fill="black"/>
<path d="M10.1311 99.9002C6.63115 100.8 1.03115 103.6 0.231149 104.8C-0.0688512 105.3 0.331149 106.5 1.03115 107.6C2.43115 109.4 2.53115 109.4 7.13115 107.1C13.1311 104.1 19.0311 104.6 24.6311 108.5L28.6311 111.3L30.9312 109.2C33.8312 106.5 37.9311 105 42.4311 105C45.7312 105 48.2311 106.2 53.7311 110.2C55.1311 111.1 56.0311 110.9 58.5311 108.7C64.2311 103.9 73.0312 103.9 78.7311 108.7C80.8311 110.5 82.2311 111.1 83.1311 110.4C88.2311 106.6 90.2311 105.7 94.0312 105.3C97.3311 104.9 99.6312 105.3 103.131 107C107.431 109.1 107.931 109.1 109.431 107.7C110.831 106.2 110.831 105.9 109.231 104.2C108.331 103.1 105.131 101.5 102.131 100.5C96.0312 98.6002 91.2311 99.0002 85.8311 101.9C82.5312 103.6 82.3311 103.6 78.3311 101.6C72.9311 98.9002 64.5312 98.9002 59.1311 101.6C55.1311 103.5 55.1311 103.5 51.1311 101.6C45.7312 99.0002 37.3312 99.0002 32.2312 101.6C28.5311 103.6 28.3312 103.6 24.7311 101.9C20.3312 99.7002 14.1311 98.9002 10.1311 99.9002Z" fill="black"/>
<path d="M7.23105 113.4C5.03105 114.2 2.43105 115.7 1.43105 116.7C-0.368945 118.6 -0.368945 118.7 1.43105 120.4C3.33105 122 3.53105 122 7.03105 119.9C12.1311 116.9 20.0311 117.6 25.0311 121.3L28.5311 124L31.1311 121.6C36.5311 116.6 44.6311 116.5 51.9311 121.4C55.0311 123.5 55.6311 123.7 56.7311 122.4C58.7311 120 64.5311 118 69.6311 118C73.2311 118 75.2311 118.7 78.2311 120.8L82.1311 123.7L85.4311 121.2C90.1311 117.6 98.1311 117 103.531 119.8C107.431 121.9 107.431 121.9 109.231 119.9C111.231 117.7 111.231 117.7 105.131 114.2C100.931 111.9 90.2311 112 85.7311 114.4C82.5311 116.1 82.3311 116.1 77.6311 114.1C71.2311 111.4 65.1311 111.4 59.5311 114.3L55.0311 116.5L51.5311 114.5C47.0311 111.9 37.6311 111.8 32.0311 114.3C28.1311 116.1 27.7311 116.1 24.6311 114.5C20.1311 112.2 11.9311 111.7 7.23105 113.4Z" fill="black"/>
</svg>
