<svg width="117" height="135" viewBox="0 0 117 135" fill="none" xmlns="http://www.w3.org/2000/svg">
<path d="M45.6485 10.6C38.7485 16.4 32.5485 21.4 31.9485 21.7C31.2485 22 29.2485 21 27.5485 19.6C25.8485 18.2 23.9485 17 23.3485 17C21.8485 17 13.6485 24.8 13.6485 26.2C13.6485 26.7 13.1485 26.8 12.6485 26.5C12.0485 26.1 11.7485 26.3 11.8485 26.8C12.0485 27.4 11.7485 27.8 11.3485 27.8C10.8485 27.9 9.84846 28.7 8.94846 29.7C8.14846 30.7 7.84846 30.8 8.24846 30C8.74846 29.2 7.84846 29.5 6.24846 30.8C4.64846 32 2.74846 33 2.04846 33C1.34846 33 0.44846 33.3999 0.14846 34C-0.75154 35.5 2.64846 40 4.74846 40C6.84846 40 8.14846 41.6 6.74846 42.3999C6.24846 42.7999 5.64846 42.3999 5.34846 41.7999C5.14846 41.1 4.64846 40.7 4.34846 41C3.24846 42 7.24846 45.8999 9.84846 46.3999C12.4485 46.7999 12.5485 46.7 11.5485 44.7C10.9485 43.5 9.74846 41.7 8.84846 40.7C7.44846 39.1 7.94846 39 18.4485 39C27.5485 39 29.6485 38.7 29.6485 37.6C29.6485 35.2999 31.5485 34.7 33.1485 36.3999C34.4485 37.7 34.3485 37.8999 32.4485 38.2999C31.1485 38.5 47.3485 38.7999 68.4485 38.8999C92.3485 38.8999 106.648 39.3999 106.648 40C106.648 40.5 104.448 44.7 101.748 49.2C99.1485 53.7999 91.6485 66.7 85.1485 77.9999C63.6485 115.5 58.3485 124.1 57.5485 123.3C57.1485 122.9 51.7485 113.7 45.6485 103C33.1485 81.2999 31.7485 79.2999 30.3485 81.1999C29.7485 82.0999 29.6485 81.6999 30.0485 80.0999C30.5485 77.6999 28.3485 72.5999 25.1485 68.4999C23.5485 66.6 23.4485 66.4999 22.1485 68.3999C20.9485 69.9999 21.0485 70.7999 22.8485 74.3999C25.0485 78.6999 55.1485 131.2 57.1485 134.2C58.1485 135.7 59.0485 134.5 63.8485 126.2C66.9485 120.9 76.0485 105 84.1485 91C120.948 27.2 117.848 33 114.848 33C113.748 33 106.948 28 99.5485 22L86.2485 11L83.6485 13.5C82.2485 14.9 80.5485 16 80.0485 16C79.4485 16 74.6485 12.4 69.3485 7.99996C64.0485 3.59996 59.3485 -4.57764e-05 58.9485 -4.57764e-05C58.4485 -4.57764e-05 52.5485 4.79996 45.6485 10.6ZM63.8485 10.9C66.4485 13 69.9485 15.9 71.7485 17.4L74.9485 20.1L72.5485 22.6C71.2485 24 67.8485 26.9 64.9485 29.2C60.5485 32.5 58.6485 33.2999 54.0485 33.7C46.8485 34.2999 44.6485 33.7 39.7485 29.6L35.6485 26.2L46.9485 16.7C53.0485 11.4 58.3485 7.09996 58.6485 7.09996C58.9485 6.99996 61.2485 8.69996 63.8485 10.9ZM95.1485 25.6C103.848 32.9 104.848 34.1 101.648 33.5C98.9485 33 84.5485 21 85.2485 19.9C86.1485 18.4 86.9485 18.8 95.1485 25.6ZM18.0485 24.6C18.9485 24.9 19.3485 25.7 19.0485 26.2C18.6485 26.8 18.0485 26.7 17.5485 25.9C17.1485 25.2 16.4485 24.9 15.9485 25.3C15.5485 25.8 15.8485 26.6 16.6485 27.1C17.8485 28 17.7485 28 16.1485 27.5C14.5485 27 14.4485 27.2 15.3485 28.1C16.2485 29 17.2485 28.7 19.6485 26.6C23.2485 23.6 23.9485 23.5 25.5485 25.4C26.5485 26.5 25.8485 27.5 22.2485 30.5C17.6485 34.3 14.6485 34.7 11.5485 32.2C10.2485 31 10.3485 30.5 13.0485 27.5C16.6485 23.5 16.1485 23.9 18.0485 24.6ZM86.1485 29.4L91.0485 33.7L80.3485 33.6C74.4485 33.6 69.6485 33.2999 69.6485 32.8999C69.6485 31.8999 78.7485 25 80.0485 25C80.7485 25 83.4485 27 86.1485 29.4ZM27.3485 30.7C27.5485 31.3 26.6485 31.7 25.2485 31.6C23.4485 31.5 23.0485 31.2 23.8485 30.2C25.0485 28.8 26.8485 29 27.3485 30.7ZM34.6485 33.2C34.6485 33.7 32.7485 34 30.4485 34L26.1485 33.8999L28.4485 32C30.3485 30.4 31.1485 30.3 32.7485 31.3C33.7485 31.9 34.6485 32.7999 34.6485 33.2ZM24.5485 33.2999C25.8485 32.8999 25.7485 33.1 24.3485 34.2999C23.2485 35.2 21.7485 35.6 20.8485 35.2C19.8485 34.7999 19.6485 34.5 20.4485 34.2C21.1485 34 21.3485 33.2999 21.0485 32.7C20.5485 31.7999 20.6485 31.7999 21.6485 32.7C22.3485 33.2999 23.6485 33.6 24.5485 33.2999ZM27.1485 37C27.9485 38.2999 26.6485 38.2999 24.6485 37C23.3485 36.2 23.3485 36 24.8485 36C25.7485 36 26.8485 36.3999 27.1485 37ZM10.0485 43.6C11.0485 46.2 10.7485 46.4999 9.14846 44.3999C8.14846 43.1 7.74846 42.8999 7.64846 43.8999C7.64846 44.7 7.34846 45.1 7.04846 44.7C6.34846 44 7.44846 42 8.64846 42C9.04846 42 9.74846 42.7 10.0485 43.6ZM26.6485 72.1999C26.6485 72.7999 25.9485 72.5999 25.0485 71.8999C23.5485 70.7 23.4485 70.7999 24.0485 73C24.6485 75 24.5485 75.1999 23.6485 73.7999C22.2485 71.5 23.4485 68.6 25.2485 70.1C26.0485 70.7 26.6485 71.6999 26.6485 72.1999Z" fill="black"/>
<path d="M12.7485 29.4C11.9485 30.4 11.8485 31 12.6485 31.5C13.1485 31.8 13.6485 32 13.7485 31.8C14.1485 30 14.4485 28 14.1485 28C14.0485 28 13.3485 28.6 12.7485 29.4Z" fill="black"/>
<path d="M7.64844 47.9002C7.64844 49.1002 17.5484 66.1002 19.2484 68.0002C20.4484 69.2002 20.6484 69.2002 20.7484 67.5002C20.8484 66.4002 20.8484 65.1002 20.7484 64.6002C20.6484 64.1002 21.2484 64.3002 22.1484 65.0002C23.0484 65.8002 22.1484 63.3002 20.1484 59.5002C16.5484 52.8002 12.6484 47.0002 12.6484 48.3002C12.6484 48.7002 11.5484 48.5002 10.1484 48.0002C8.74844 47.5002 7.64844 47.4002 7.64844 47.9002Z" fill="black"/>
</svg>
