<svg width="102" height="106" viewBox="0 0 102 106" fill="none" xmlns="http://www.w3.org/2000/svg">
<path d="M0.100098 2.5V5H50.6001H101.1V2.5V0H50.6001H0.100098V2.5Z" fill="black"/>
<path d="M0.1 12.5V15H11C23.5 15 22.9 14.5 22.3 24.7L21.9 30H10.9H0L0.3 32.6L0.6 35.2L50.6 35.3L100.6 35.5L100.9 32.7L101.2 30H64.7H28.1V22.5V15H64.6H101.1V12.5V10H50.6H0.1V12.5Z" fill="black"/>
<path d="M0.100098 22.5C0.100098 25 0.200098 25 7.6001 25C16.6001 25 16.6001 25 16.6001 22.5C16.6001 20.7 15.8001 20.5 8.3001 20.2C0.100098 19.9 0.100098 19.9 0.100098 22.5Z" fill="black"/>
<path d="M34.3 22.6L34.6 25.1H67.6L100.6 25.2L100.9 22.6L101.2 20H67.6H34L34.3 22.6Z" fill="black"/>
<path d="M0.3 42.7L0.6 45.5H26.6H52.6L52.9 42.7L53.2 40H26.6H0L0.3 42.7Z" fill="black"/>
<path d="M58.1001 45V50H29.1001H0.100098V53V56L31.9001 55.8L63.6001 55.5V51C63.6001 48.5 64.1001 46.3 64.8001 46C65.5001 45.7 68.8001 45.6 72.3001 45.8L78.6001 46.1V50.8V55.5H89.6001H100.6L100.9 52.7L101.2 50H92.7001H84.1001V45V40H71.1001H58.1001V45Z" fill="black"/>
<path d="M90.1001 42.9999C90.1001 45.8999 90.2001 45.8999 95.4001 45.6999C100.3 45.4999 100.6 45.2999 100.9 42.6999C101.2 39.9999 101.1 39.9999 95.7001 39.9999C90.2001 39.9999 90.1001 39.9999 90.1001 42.9999Z" fill="black"/>
<path d="M0.100098 61.2001C0.100098 63.6001 1.7001 65.0001 4.6001 65.0001C6.3001 65.1001 28.6001 65.3001 54.4001 65.6001L101.1 66.1001V63.1001V60.0001H50.6001C10.9001 60.0001 0.100098 60.3001 0.100098 61.2001ZM3.6001 63.0001C3.9001 63.5001 3.7001 64.0001 3.2001 64.0001C2.6001 64.0001 2.1001 63.5001 2.1001 63.0001C2.1001 62.4001 2.3001 62.0001 2.5001 62.0001C2.8001 62.0001 3.3001 62.4001 3.6001 63.0001Z" fill="black"/>
<path d="M11.1002 70.9C1.2002 71.5 0.600196 71.6 0.300196 73.7C0.000195548 75.9 0.300196 76 6.5002 76C10.1002 76 13.1002 75.8 13.1002 75.5C13.1002 75.3 11.9002 74.4 10.4002 73.6L7.6002 72.1L11.5002 72C14.5002 72 15.2002 72.3 14.7002 73.5C14.4002 74.3 14.6002 75 15.1002 75C15.7002 75 16.1002 74.5 16.1002 74C16.1002 72.3 17.8002 72.9 18.3002 74.8C18.6002 75.8 18.2002 77.2 17.4002 77.9C16.0002 79.2 15.9002 85.8 17.2002 89.9C17.5002 91 16.5002 91.3 12.6002 91C0.500195 90.3 0.600196 90.3 0.300196 93.2C0.000195548 96 0.000195697 96 6.1002 96C9.5002 96 12.0002 95.6 11.7002 95.1C11.4002 94.6 12.6002 94 14.4002 93.6C16.7002 93.1 17.9002 93.4 18.8002 94.5C20.3002 96.7 31.3002 96.2 32.3002 94C32.8002 92.8 33.0002 92.8 33.0002 94.2C33.1002 95.9 35.4002 96 67.1002 96H101.1V93V90H70.9002H40.6002V83V76H70.9002H101.1V73V70L61.4002 70.2C39.5002 70.3 16.9002 70.6 11.1002 70.9ZM23.6002 74C23.6002 75 24.9002 75.6 27.8002 75.8C30.9002 76 32.6002 76.8 34.1002 78.7C36.6002 81.9 36.6002 84.1 34.1002 87.3C33.0002 88.7 32.1002 90.3 32.1002 91C32.1002 91.6 31.7002 91.9 31.2002 91.5C30.7002 91.2 29.6002 91.6 28.8002 92.4C27.5002 93.7 27.2002 93.6 26.3002 91.4C25.6002 90.1 24.7002 89 24.2002 89C23.7002 89 22.8002 87.7 22.1002 86.1C20.8002 82.9 21.6002 77 23.3002 77C23.9002 77 23.9002 76.4 23.1002 75.5C22.4002 74.7 22.2002 74 22.7002 73.9C23.2002 73.8 22.5002 73.4 21.1002 72.9L18.6002 72.1L21.1002 72.3C22.6002 72.4 23.6002 73.1 23.6002 74ZM21.1002 75C21.1002 75.5 20.7002 76 20.1002 76C19.6002 76 19.1002 75.5 19.1002 75C19.1002 74.4 19.6002 74 20.1002 74C20.7002 74 21.1002 74.4 21.1002 75ZM21.1002 79C21.1002 79.5 20.7002 80 20.2002 80C19.6002 80 18.9002 79.5 18.6002 79C18.3002 78.4 18.7002 78 19.5002 78C20.4002 78 21.1002 78.4 21.1002 79Z" fill="black"/>
<path d="M3.2002 80.7C3.1002 81.4 2.3002 81.7 1.4002 81.4C-0.199805 80.9 -0.199805 81 1.4002 82C3.5002 83.3 4.60019 82.8 3.8002 80.8C3.4002 79.9 3.2002 79.9 3.2002 80.7Z" fill="black"/>
<path d="M6.39989 80.7C5.69989 80.9 5.09989 81.8 5.09989 82.5C5.09989 83.3 4.09989 84.1 2.89989 84.3C0.799893 84.7 0.899893 84.7 3.19989 84.9C5.09989 85 5.99989 84.4 6.39989 82.9C6.69989 81.7 7.39989 81.1 7.99989 81.5C8.59989 81.8 9.09989 81.6 9.09989 81.1C9.09989 79.9 8.39989 79.8 6.39989 80.7Z" fill="black"/>
<path d="M46.1001 83V86H73.6001H101.1V83V80H73.6001H46.1001V83Z" fill="black"/>
<path d="M7.3999 84.5C7.3999 85.3 7.7999 86 8.2999 86C8.6999 86 9.0999 85.3 9.0999 84.5C9.0999 83.7 8.6999 83 8.2999 83C7.7999 83 7.3999 83.7 7.3999 84.5Z" fill="black"/>
<path d="M3.9001 100.8C1.7001 101.1 1.1001 101.7 1.1001 103.6C1.1001 104.9 1.6001 106 2.2001 106C2.8001 106 3.0001 105.1 2.6001 104C2.2001 102.9 2.4001 102 3.0001 102C3.6001 102 4.1001 102.9 4.1001 104C4.1001 105.7 4.8001 106 8.6001 106C11.1001 106 13.1001 105.5 13.1001 105C13.1001 104.4 13.6001 104 14.2001 104C14.7001 104 15.0001 104.4 14.7001 104.9C13.8001 106.3 29.3001 106.2 30.4001 104.8C31.1001 103.8 31.4001 103.8 31.8001 104.7C32.2001 105.7 40.1001 106 66.7001 106H101.2L100.9 103.2L100.6 100.5H53.6001C27.7001 100.5 5.4001 100.6 3.9001 100.8ZM17.1001 103C17.1001 104.3 16.0001 104.3 14.1001 103C12.9001 102.2 13.0001 102 14.9001 102C16.1001 102 17.1001 102.4 17.1001 103ZM21.1001 103C21.1001 103.5 20.4001 104 19.6001 104C18.8001 104 18.1001 103.5 18.1001 103C18.1001 102.4 18.8001 102 19.6001 102C20.4001 102 21.1001 102.4 21.1001 103ZM32.4001 102.7C31.7001 102.9 30.3001 102.9 29.4001 102.7C28.4001 102.4 29.0001 102.2 30.6001 102.2C32.3001 102.2 33.0001 102.4 32.4001 102.7Z" fill="black"/>
</svg>
