<svg width="102" height="117" viewBox="0 0 102 117" fill="none" xmlns="http://www.w3.org/2000/svg">
<path d="M42.5 4.69996C38.1 7.29996 29.1 12.5 22.5 16.4C15.9 20.3 8.3 24.7 5.5 26.1L0.5 28.7L0.3 58.1L0 87.5L10.8 93.6C16.7 97 28.1 103.6 36.1 108.3L50.7 116.7L75.9 102.1L101.1 87.5V58.5V29.5L98.8 27.8C96.2 26 51.4 -3.8147e-05 50.9 -3.8147e-05C50.7 -3.8147e-05 46.9 2.09996 42.5 4.69996ZM54.5 8.59996C56.5 10.1 56.5 10.1 54.6 11.6C52.2 13.3 50.9 13.4 47.5 11.8C44.4 10.4 44.3 9.59996 47.3 8.19996C50.4 6.69996 52.2 6.79996 54.5 8.59996ZM45.5 17.1L50.9 20.1L56.8 16.9C62.1 14 63.1 13.7 65.4 14.8C66.8 15.4 68 16.4 68 16.9C68 17.8 52.4 27 50.9 27C49.6 27 33.1 17.6 33 16.9C33 16.2 37 14.2 38.8 14.1C39.5 14 42.5 15.4 45.5 17.1ZM38.9 27.1L51 34.2L62.8 27.2C74 20.6 74.6 20.3 77.3 21.7C81.7 23.9 82.9 22.9 62.1 34.8C51.8 40.6 50.5 41.2 48.6 40C47.4 39.2 41.8 36 36 32.7C30.2 29.5 24.4 26.1 23.1 25.3L20.8 23.8L23.6 22C25.2 21 26.6 20.1 26.6 20.1C26.7 20 32.2 23.2 38.9 27.1ZM42.3 42.8L51 47.8L69 37.4L86.9 27L90 28.9L93.1 30.7L72 42.9L50.8 55.1L33.2 44.9C23.4 39.3 14 33.8 12.1 32.7L8.7 30.7L12 29L15.3 27.3L24.4 32.5C29.4 35.4 37.4 40 42.3 42.8ZM27.1 47.8L47.5 59.6L47.8 83.9C47.9 99 47.7 108.1 47.1 107.8C46.6 107.7 37.1 102.3 26.1 96L6 84.5V60.2C6 46.9 6.2 36 6.4 36C6.5 36 15.9 41.3 27.1 47.8ZM95.8 60.2L95.5 84.3L86 90C73 97.7 54.9 108 54.4 108C54.2 108 54 97.1 54 83.7L54.1 59.5L74.3 47.8C85.4 41.4 94.8 36.1 95.3 36.1C95.7 36 95.9 46.9 95.8 60.2Z" fill="black"/>
</svg>
