<svg width="92" height="116" viewBox="0 0 92 116" fill="none" xmlns="http://www.w3.org/2000/svg">
<path d="M41.4658 4.00005C36.2658 6.20005 29.7658 8.70005 27.1658 9.50005C23.1658 10.7001 22.3658 11.4 22.7658 12.9C23.0658 14 22.5658 15 21.5658 15.5C20.2658 16 20.4658 16.3 22.4658 16.9C24.7658 17.6 24.6658 17.7001 21.5658 17.8L18.2658 17.9L19.9658 15.3C21.5658 12.7001 21.5658 12.7001 19.2658 13.4C15.5658 14.5 14.7658 15.8 10.7658 27.1C7.66582 36.1 7.26582 38.1 8.36582 39.1C9.46582 40.2001 9.66582 40.1 9.16582 38.8C8.86582 37.7001 9.46582 36.7001 10.8658 36C12.0658 35.3 13.8658 33.6 14.7658 32.1L16.4658 29.4L15.8658 32.4C15.4658 34.7001 15.5658 35 16.3658 33.9C16.9658 33.1 17.4658 32.8 17.4658 33.4C17.3658 34.9 15.2658 37.2001 12.2658 39.2001C10.6658 40.2001 9.56582 41.7001 9.56582 42.7001C9.66582 44.2001 9.76582 44.2001 10.1658 42.8C10.3658 41.9 12.3658 40.4 14.4658 39.4C16.6658 38.4 18.1658 37.2001 17.8658 36.8C17.5658 36.3 17.7658 35.9 18.2658 35.9C18.7658 35.9 19.6658 34.2001 20.2658 32.1C21.8658 26.6 22.6658 19.9 21.5658 19.9C20.4658 19.9 19.4658 22.4 19.4658 25.5C19.4658 26.8 18.9658 27.9 18.3658 27.9C17.7658 27.9 17.5658 27.2001 17.8658 26.3C18.1658 25.4 18.4658 23.5 18.4658 22C18.4658 19.9 18.9658 19.3 21.0658 19.1C23.5658 18.9 23.6658 19 22.9658 23C22.4658 26 22.6658 27.4 23.5658 28C24.5658 28.6 24.6658 28.9 23.7658 28.9C23.0658 28.9 22.4658 29.6 22.4658 30.4C22.4658 31.3 21.7658 33.1 20.8658 34.4C18.6658 37.8 20.1658 37.6 28.4658 33.4C32.2658 31.5 35.6658 29.9 35.9658 29.9C36.2658 29.9 36.4658 44 36.4658 61.3V92.8L24.4658 88.6L12.4658 84.4V64.1C12.4658 44.2001 12.4658 43.8 10.4658 44.4C8.86582 44.9 8.46582 44.6 8.36582 42.7001C8.26582 41.3 7.86582 42 7.36582 44.4C6.96582 46.6 6.56582 57.1 6.56582 67.7L6.46582 87L19.5658 101.4L32.6658 115.8L45.7658 115.7H58.9658L69.6658 110.5L80.4658 105.4V89.5C80.4658 74.4 80.2658 72.4 74.8658 45L69.3658 16.4L60.6658 8.20005C55.8658 3.70005 51.7658 4.57764e-05 51.4658 4.57764e-05C51.1658 4.57764e-05 46.6658 1.80005 41.4658 4.00005ZM36.4658 13.1C35.4658 15.3 35.4658 15.3 35.9658 12.6C36.2658 11.1 36.0658 9.90005 35.5658 9.90005C34.5658 9.90005 34.7658 18.9 35.9658 23.3C36.5658 25.6 36.4658 26 35.4658 25.4C34.4658 24.8 34.2658 25.1 34.7658 26.8C35.1658 28.4 34.6658 29.3 32.5658 30.4C29.8658 31.8 29.8658 31.8 30.3658 28.6C30.7658 25.5 30.8658 25.5 31.4658 27.9C32.0658 30.1 32.2658 30.2001 32.9658 28.6C33.3658 27.7001 33.4658 25.9 33.1658 24.6C31.3658 17.1 31.3658 17.3 32.8658 20.4C34.2658 23.3 34.2658 23.2001 33.7658 17.4C33.4658 14.1 32.6658 10.8 32.0658 10C31.3658 9.10004 31.3658 8.80005 31.9658 9.10004C32.5658 9.50005 33.6658 9.40005 34.4658 8.90005C36.5658 7.60004 37.6658 10.2001 36.4658 13.1ZM56.9658 14.7001C55.5658 14.9 53.1658 14.9 51.5658 14.7001L48.5658 14.4L50.1658 11.2001L51.6658 8.00005L55.5658 11.2001C59.2658 14.3 59.2658 14.4 56.9658 14.7001ZM17.1658 17.1C16.8658 17.9 16.5658 17.6 16.5658 16.5C16.4658 15.4 16.7658 14.8 17.0658 15.2001C17.3658 15.5 17.4658 16.4 17.1658 17.1ZM38.4658 19C38.4658 19.5 38.0658 19.9 37.4658 19.9C36.9658 19.9 36.4658 19.2001 36.4658 18.3C36.4658 17.5 36.9658 17.1 37.4658 17.4C38.0658 17.7001 38.4658 18.4 38.4658 19ZM64.8658 22.5C65.9658 25.4 64.3658 25.9 53.8658 25.9C43.6658 25.9 42.8658 25.6 44.0658 22.5C44.9658 20.1 63.9658 20.1 64.8658 22.5ZM19.4658 29.9C19.4658 30.4 19.0658 30.9 18.4658 30.9C17.9658 30.9 17.4658 30.4 17.4658 29.9C17.4658 29.3 17.9658 28.9 18.4658 28.9C19.0658 28.9 19.4658 29.3 19.4658 29.9ZM66.4658 31.8C66.4658 32.3 66.7658 33.4 67.0658 34.3C67.5658 35.7001 66.1658 35.9 55.0658 35.9H42.4658V33.4V30.9H54.4658C61.0658 30.9 66.4658 31.3 66.4658 31.8ZM68.8658 43.5C69.1658 44.4 69.4658 45.5 69.4658 46C69.4658 46.5 63.4658 46.9 55.9658 46.9H42.4658V44.4V41.9H55.3658C66.1658 41.9 68.3658 42.2001 68.8658 43.5ZM70.8658 53.5C71.1658 54.4 71.4658 55.5 71.4658 56C71.4658 56.5 65.0658 56.9 56.9658 56.9H42.4658V54.4V51.9H56.3658C68.0658 51.9 70.3658 52.1 70.8658 53.5ZM73.2658 65.6L73.5658 67.9H58.0658H42.4658V65.4V62.8L57.7658 63.1C72.6658 63.4 72.9658 63.4 73.2658 65.6ZM74.4658 73.7C74.4658 74.2 72.8658 75.3 70.9658 76.2C68.1658 77.5 64.5658 77.9 54.9658 77.9H42.4658V75.4V72.9H58.4658C67.2658 72.9 74.4658 73.3 74.4658 73.7ZM75.4658 88.4C75.4658 92.5 75.2658 95.9 74.9658 95.9C74.4658 95.9 66.0658 87 65.7658 86C65.4658 85.3 72.3658 81.2 74.2658 81C75.0658 80.9 75.4658 83 75.4658 88.4ZM56.3658 84.2C56.1658 84.4 52.9658 86.2 49.2658 88.2L42.4658 91.9V87.9V83.9H49.6658C53.5658 83.9 56.5658 84 56.3658 84.2ZM44.4658 104.3L50.8658 109.4L42.9658 109.7L35.1658 110L27.8658 102.2C23.8658 97.9 20.5658 94.1 20.4658 93.7C20.4658 93.3 24.3658 94.4 29.2658 96.1C35.1658 98.3 40.0658 100.9 44.4658 104.3Z" fill="black"/>
<path d="M78.8656 4.00009C77.0656 6.00009 77.0656 6.10009 78.9656 7.60009C80.9656 9.00009 80.9656 9.00009 78.9656 10.5001C77.0656 11.9001 77.0656 12.0001 79.1656 14.1001C80.9656 15.9001 81.5656 16.0001 82.8656 14.9001C84.1656 13.9001 84.7656 13.9001 85.9656 14.9001C87.2656 15.9001 87.8656 15.8001 89.4656 14.4001C91.3656 12.7001 91.3656 12.5001 89.7656 10.7001C88.2656 9.00009 88.2656 8.80009 90.0656 7.50009C91.8656 6.10009 91.8656 6.00009 90.0656 4.00009C88.2656 2.00009 88.0656 2.00009 86.2656 3.50009C84.5656 5.10009 84.3656 5.10009 82.6656 3.50009C80.8656 2.00009 80.6656 2.00009 78.8656 4.00009Z" fill="black"/>
<path d="M78.9655 22.9002C77.2655 24.8002 77.1655 25.1002 78.7655 26.6002C80.2655 28.2002 80.2655 28.4002 78.7655 30.1002C77.2655 31.8002 77.2655 32.0002 78.9655 33.9002C80.6655 35.8002 80.8655 35.8002 82.6655 34.3002C84.3655 32.7002 84.5655 32.7002 86.2655 34.3002C88.0655 35.8002 88.2655 35.8002 89.9655 33.9002C91.6655 32.0002 91.6655 31.8002 90.1655 30.1002C88.6655 28.5002 88.6655 28.1002 90.0655 26.7002C91.4655 25.3002 91.4655 25.0002 89.8655 23.0002C88.1655 21.1002 87.9655 21.1002 86.2655 22.6002C84.5655 24.1002 84.3655 24.1002 82.6655 22.5002C80.8655 21.0002 80.6655 21.0002 78.9655 22.9002Z" fill="black"/>
<path d="M12.0656 36.4001C10.4656 37.6001 10.3656 37.9001 11.6656 37.9001C12.4656 37.9001 13.7656 37.2001 14.4656 36.4001C16.0656 34.5001 14.5656 34.5001 12.0656 36.4001Z" fill="black"/>
<path d="M1.16563 102.7C-0.334369 104.3 -0.334369 104.8 0.865632 106.5C2.16563 108.1 2.16563 108.6 0.865632 110C-0.334369 111.4 -0.334369 111.8 1.46563 113.4C3.36563 115.1 3.66563 115.1 5.16563 113.6C6.66563 112.1 6.86563 112.1 8.06563 113.7C9.06563 115 9.76563 115.2 11.0656 114.3C13.4656 112.9 13.8656 111.3 12.0656 109.7C10.8656 108.6 10.8656 108.2 12.1656 106.6C13.6656 105.1 13.5656 104.7 11.9656 102.9C10.2656 101 10.0656 101 8.16563 102.6C6.36563 104.3 6.26563 104.3 4.96563 102.6C3.46563 100.5 3.16563 100.5 1.16563 102.7Z" fill="black"/>
</svg>
