<svg width="141" height="118" viewBox="0 0 141 118" fill="none" xmlns="http://www.w3.org/2000/svg">
<path d="M48.9968 20.4001L28.6968 40.7001L22.2968 41.3001C15.6968 41.9001 8.89684 44.4001 3.19684 48.3001C-0.403163 50.7001 -0.903163 52.1001 1.39684 54.0001C2.59684 55.0001 3.59684 54.8001 6.69684 52.7001C15.5968 46.5001 25.5968 45.4001 36.4968 49.5001C40.0968 50.9001 45.0968 52.0001 47.3968 52.0001C49.6968 52.0001 54.6968 50.9001 58.2968 49.5001C62.3968 48.0001 66.9968 47.0001 70.3968 47.0001C73.7968 47.0001 78.3968 48.0001 82.4968 49.5001C90.5968 52.5001 96.8968 52.6001 102.897 49.9001C112.497 45.4001 124.997 46.4001 133.097 52.2001C137.097 55.2001 137.197 55.2001 139.097 53.2001C141.097 51.3001 141.097 51.2001 137.697 48.7001C132.297 44.5001 125.797 42.1001 118.197 41.4001L111.297 40.7001L91.3968 20.4001C80.4968 9.20012 71.0968 0.000114441 70.4968 0.000114441C69.8968 0.000114441 60.1968 9.20012 48.9968 20.4001ZM88.2968 24.9001C97.5968 34.2001 104.897 42.2001 104.597 42.7001C104.297 43.2001 101.597 44.5001 98.5968 45.5001L93.0968 47.3001L85.2968 44.4001C74.6968 40.5001 66.3968 40.5001 55.4968 44.3001C47.2968 47.2001 45.0968 47.2001 38.0968 44.3001L34.5968 42.8001L51.9968 25.4001C61.4968 15.8001 69.7968 8.00011 70.3968 8.00011C70.9968 8.00011 78.9968 15.6001 88.2968 24.9001Z" fill="black"/>
<path d="M14.197 56.1002C12.397 56.6002 10.897 57.4002 10.897 57.8002C10.897 58.9002 69.697 117.5 70.297 117C70.597 116.7 84.097 103.2 100.397 87.0002L129.897 57.5002L126.697 56.3002C120.797 54.2002 110.497 54.7002 102.197 57.6002C93.897 60.5002 91.497 60.4002 82.697 57.1002C74.697 54.2002 65.497 54.3002 56.397 57.5002C47.697 60.6002 45.697 60.6002 37.497 57.5002C30.397 54.8002 20.597 54.3002 14.197 56.1002Z" fill="black"/>
</svg>
