<svg width="142" height="128" viewBox="0 0 142 128" fill="none" xmlns="http://www.w3.org/2000/svg">
<path d="M87.5625 0.698402C80.5625 2.7984 74.2625 11.0984 73.1625 19.7984C72.8625 21.8984 72.3625 23.6984 71.9625 23.6984C71.6625 23.5984 68.6625 22.9984 65.3625 22.1984C41.8625 16.4984 16.7625 28.1984 5.8625 49.7984C0.962503 59.6984 -0.537497 66.8984 0.162503 77.6984C1.4625 99.0984 15.4625 117.698 35.6625 124.898C42.7625 127.398 56.5625 128.298 63.9625 126.798C71.4625 125.198 81.0625 120.498 87.0625 115.498L91.9625 111.398L96.4625 116.498C107.063 128.598 121.662 127.098 128.863 113.098C131.062 108.898 131.363 106.898 131.363 98.6984C131.363 89.9984 131.062 88.6984 128.262 83.1984C122.263 71.7984 122.562 67.6984 130.062 58.3984C136.262 50.6984 138.363 46.6984 140.363 38.5984C142.262 30.9984 141.363 27.1984 137.262 25.6984C135.062 24.7984 133.163 25.2984 125.562 28.7984C117.162 32.6984 116.363 32.8984 113.963 31.5984C111.963 30.4984 111.162 28.9984 110.562 25.1984C108.363 12.5984 107.662 9.8984 105.863 6.8984C102.463 1.3984 94.4625 -1.4016 87.5625 0.698402ZM97.2625 6.6984C101.063 8.0984 102.763 11.4984 103.863 20.1984C105.162 29.8984 106.363 33.1984 109.662 35.6984C113.463 38.7984 119.263 38.2984 127.763 34.1984C131.762 32.2984 135.262 30.6984 135.463 30.6984C136.363 30.6984 135.762 34.8984 133.863 40.7984C132.463 45.4984 130.463 48.9984 126.363 53.6984C120.363 60.6984 117.263 68.2984 118.363 73.3984C118.763 74.8984 120.662 79.6984 122.562 83.9984C125.562 90.5984 126.162 92.9984 126.062 98.4984C125.963 111.198 120.763 118.698 111.963 118.698C106.562 118.698 103.963 117.098 98.8625 110.798L95.7625 106.798L98.8625 102.098C105.663 91.2984 108.363 76.9984 105.963 64.1984C103.463 50.9984 92.9625 35.4984 82.2625 29.1984L77.6625 26.4984L78.3625 21.8984C80.0625 10.0984 88.4625 3.2984 97.2625 6.6984ZM66.9625 28.2984C72.7625 29.8984 72.7625 29.8984 73.7625 34.8984C76.6625 47.9984 74.1625 54.3984 62.9625 62.1984C49.8625 71.3984 47.6625 74.4984 47.6625 83.5984C47.6625 90.4984 48.7625 93.3984 52.8625 97.1984C55.8625 100.098 56.2625 100.198 68.1625 100.698C78.0625 101.098 81.0625 101.598 83.8625 103.298C85.7625 104.398 87.3625 105.898 87.3625 106.698C87.3625 108.998 77.4625 116.298 71.3625 118.598C52.6625 125.598 34.2625 121.998 20.2625 108.498C-2.5375 86.5984 1.1625 50.7984 28.1625 33.4984C38.3625 26.9984 54.4625 24.7984 66.9625 28.2984ZM90.3625 43.6984C92.1625 45.6984 92.0625 45.6984 86.5625 45.6984C81.5625 45.6984 80.8625 45.4984 80.8625 43.6984C80.8625 41.9984 81.5625 41.6984 84.6625 41.6984C87.2625 41.6984 89.1625 42.3984 90.3625 43.6984ZM96.6625 53.8984C96.9625 55.4984 96.0625 55.6984 87.4625 55.6984C82.1625 55.6984 77.8625 55.4984 77.8625 55.2984C77.8625 55.0984 78.1625 54.0984 78.4625 53.1984C78.9625 51.8984 80.5625 51.6984 87.7625 51.8984C94.9625 52.1984 96.3625 52.4984 96.6625 53.8984ZM99.8625 63.6984C99.8625 65.5984 99.1625 65.6984 84.1625 65.6984C68.6625 65.6984 68.5625 65.6984 70.3625 63.6984C71.9625 61.8984 73.4625 61.6984 86.0625 61.6984C99.1625 61.6984 99.8625 61.7984 99.8625 63.6984ZM101.263 72.3984C101.563 73.1984 101.663 74.2984 101.263 74.7984C100.663 75.7984 55.8625 76.0984 55.8625 75.0984C55.8625 74.7984 56.8625 73.6984 58.1625 72.6984C60.1625 70.9984 62.2625 70.7984 80.5625 70.7984C97.4625 70.8984 100.863 71.0984 101.263 72.3984ZM100.863 81.5984C100.863 85.5984 100.563 85.6984 76.2625 85.6984H52.8625V83.1984V80.6984H76.8625C90.7625 80.6984 100.863 81.0984 100.863 81.5984ZM97.8625 92.0984C97.8625 95.3984 95.3625 95.7984 76.7625 95.1984C59.4625 94.5984 54.8625 93.8984 54.8625 91.6984C54.8625 91.0984 63.2625 90.6984 76.3625 90.6984C93.9625 90.6984 97.8625 90.9984 97.8625 92.0984Z" fill="black"/>
<path d="M117.863 17.1985C116.463 18.8985 117.363 22.2985 119.363 23.0985C122.663 24.2985 125.463 21.1985 124.363 17.5985C123.563 15.2985 119.663 15.0985 117.863 17.1985Z" fill="black"/>
<path d="M131.463 65.7985C127.263 70.7985 128.363 76.6985 133.463 76.6985C135.963 76.6985 139.563 72.6985 140.463 68.9985C141.163 66.1985 138.563 62.6985 135.763 62.6985C134.863 62.6985 132.863 64.0985 131.463 65.7985Z" fill="black"/>
</svg>
