<svg width="107" height="107" viewBox="0 0 107 107" fill="none" xmlns="http://www.w3.org/2000/svg">
<path d="M3.39982 3.44117C-4.00018 10.8412 1.69982 22.1412 12.1998 20.7412C17.2998 20.0412 19.6998 17.8412 20.4998 12.9412C21.3998 7.94117 19.7998 3.94117 16.0998 1.74117C11.3998 -1.05883 7.29982 -0.458826 3.39982 3.44117Z" fill="black"/>
<path d="M33.8998 1.54098C30.4998 3.34098 27.5998 9.34098 28.4998 12.741C28.7998 14.141 30.3998 16.541 31.9998 18.141C37.2998 23.441 45.9998 21.341 48.9998 14.141C50.5998 10.241 49.5998 6.54098 45.9998 2.94098C42.7998 -0.359018 38.2998 -0.859018 33.8998 1.54098ZM43.7998 10.341C43.9998 12.241 43.3998 13.341 41.5998 14.641C39.1998 16.141 38.7998 16.141 36.3998 14.641C33.0998 12.441 33.3998 8.14098 36.9998 6.34098C40.1998 4.74098 43.3998 6.64098 43.7998 10.341Z" fill="black"/>
<path d="M61.7997 1.74102C52.9997 7.24102 57.0997 21.041 67.5997 21.041C71.2997 21.041 75.3997 18.541 76.7997 15.541C78.9997 10.841 78.2997 7.14102 74.5997 3.44102C70.6997 -0.458982 66.2997 -1.05898 61.7997 1.74102ZM71.6997 8.34102C73.6997 12.741 70.0997 16.641 65.5997 15.041C61.6997 13.741 61.5997 7.54102 65.3997 6.14102C68.2997 5.04102 70.5997 5.84102 71.6997 8.34102Z" fill="black"/>
<path d="M89.1 2.64102C81.6 8.94102 86.1 21.041 96.1 21.041C105.7 21.041 109.9 8.74102 102.5 2.24101C98.8 -0.858984 93.1 -0.758986 89.1 2.64102ZM100.8 10.341C101 12.241 100.4 13.341 98.6 14.641C96.2 16.141 95.8 16.141 93.4 14.641C90.1 12.441 90.4 8.14102 94 6.34102C97.2 4.74101 100.4 6.64102 100.8 10.341Z" fill="black"/>
<path d="M5 30.241C-1.5 34.641 -1.5 43.441 5 47.841C9.6 50.941 14.4 50.241 18.3 46.041C26.4 37.041 15.1 23.441 5 30.241ZM14.6 36.541C16.1 38.841 16.1 39.241 14.6 41.541C13.6 43.041 12 44.041 10.5 44.041C9 44.041 7.4 43.041 6.4 41.541C4.9 39.241 4.9 38.841 6.4 36.541C7.4 35.041 9 34.041 10.5 34.041C12 34.041 13.6 35.041 14.6 36.541Z" fill="black"/>
<path d="M34.2996 29.441C30.3996 31.241 28.0996 35.441 28.5996 39.841C29.8996 50.841 44.4996 53.341 48.6996 43.341C52.4996 34.141 43.3996 25.341 34.2996 29.441ZM42.0996 35.041C45.8996 37.141 43.4996 44.041 38.9996 44.041C36.5996 44.041 33.9996 41.441 33.9996 39.041C33.9996 36.841 36.5996 34.041 38.5996 34.041C39.4996 34.041 40.9996 34.541 42.0996 35.041Z" fill="black"/>
<path d="M63.3999 29.4409C54.2999 33.4409 54.9999 45.9409 64.3999 49.0409C68.8999 50.5409 72.4999 49.4409 75.4999 45.8409C82.5999 37.4409 73.3999 25.0409 63.3999 29.4409Z" fill="black"/>
<path d="M91.4996 29.4409C89.7996 30.1409 87.5996 32.3409 86.5996 34.3409C84.8996 37.4409 84.7996 38.4409 85.7996 41.8409C88.6996 51.3409 101.3 52.3409 105.5 43.3409C107.1 40.0409 107.1 39.5409 105.5 35.5409C104.4 32.4409 103 30.7409 100.6 29.6409C96.5996 27.7409 95.3996 27.7409 91.4996 29.4409Z" fill="black"/>
<path d="M3.4 60.441C0.8 63.041 0 64.641 0 67.541C0 72.441 5.3 78.041 9.9 78.041C16.8 78.041 21 73.741 21 66.941C21 62.841 19.5 60.341 16 58.541C11.1 56.041 7.2 56.641 3.4 60.441ZM14 64.041C18 68.041 15.2 72.641 9 72.141C4.8 71.841 4.6 63.841 8.7 62.741C11.8 61.941 11.9 61.941 14 64.041Z" fill="black"/>
<path d="M32.1997 59.8409C28.1997 63.6409 27.2997 68.1409 29.6997 72.3409C32.1997 76.5409 35.5997 78.2409 40.2997 77.6409C44.8997 77.1409 46.8997 75.6409 48.6997 71.2409C52.8997 61.1409 40.1997 52.4409 32.1997 59.8409ZM42.1997 63.7409C44.7997 66.0409 44.4997 69.6409 41.4997 71.6409C39.1997 73.1409 38.7997 73.1409 36.4997 71.6409C33.5997 69.7409 33.2997 66.5409 35.6997 63.8409C37.6997 61.6409 39.7997 61.5409 42.1997 63.7409Z" fill="black"/>
<path d="M60.7001 59.3412C55.4001 63.5412 56.2001 73.5412 62.1001 76.5412C73.1001 82.2412 83.0001 69.8412 74.9001 60.5412C72.3001 57.6412 71.1001 57.0412 67.6001 57.0412C64.8001 57.0412 62.6001 57.7412 60.7001 59.3412ZM70.4001 63.3412C72.4001 64.8412 72.9001 69.5412 71.2001 71.2412C69.5001 72.9412 65.0001 72.4412 63.5001 70.4412C61.9001 68.2412 62.5001 65.1412 64.8001 63.2412C66.8001 61.7412 68.2001 61.7412 70.4001 63.3412Z" fill="black"/>
<path d="M88.9999 59.741C84.6999 63.641 84.0999 68.441 87.1999 73.041C92.1999 80.441 103 79.041 105.7 70.741C109.1 60.441 97.0999 52.541 88.9999 59.741ZM99.9999 65.241C101.9 68.741 100.5 71.441 96.5999 71.841C91.1999 72.541 88.8999 66.641 93.2999 63.541C96.1999 61.441 98.0999 61.941 99.9999 65.241Z" fill="black"/>
<path d="M5.2999 86.9411C1.0999 89.6411 -0.300105 92.5411 0.299895 97.3411C0.999895 102.141 3.4999 104.941 8.2999 106.041C18.1999 108.241 25.0999 96.5411 18.2999 89.0411C14.5999 85.0411 9.69989 84.2411 5.2999 86.9411ZM14.5999 93.1411C16.2999 95.0411 16.2999 95.4411 14.8999 97.8411C12.1999 102.741 5.9999 101.541 5.9999 96.1411C5.9999 91.0411 11.0999 89.2411 14.5999 93.1411Z" fill="black"/>
<path d="M34.1999 86.5411C30.2999 88.2411 27.5999 93.7411 28.4999 98.0411C28.7999 99.5411 30.3999 102.041 32.0999 103.641C34.4999 105.941 35.8999 106.441 39.1999 106.341C43.9999 106.141 48.4999 102.441 49.4999 98.0411C50.3999 94.0411 47.6999 88.4411 44.0999 86.6411C40.3999 84.7411 38.4999 84.6411 34.1999 86.5411Z" fill="black"/>
<path d="M63.3997 85.9411C62.1997 86.4411 60.2997 88.1411 58.9997 89.7411C57.2997 91.9411 56.8997 93.4411 57.2997 96.9411C58.0997 103.841 63.7997 107.741 70.5997 105.941C74.8997 104.741 77.1997 101.841 77.6997 96.7411C78.1997 92.9411 77.7997 91.9411 75.3997 89.1411C72.2997 85.7411 67.1997 84.3411 63.3997 85.9411ZM71.3997 93.2411C73.3997 96.1411 73.3997 96.6411 70.9997 99.0411C68.2997 101.741 65.3997 101.541 63.3997 98.5411C61.8997 96.2411 61.8997 95.8411 63.3997 93.5411C65.4997 90.3411 69.2997 90.2411 71.3997 93.2411Z" fill="black"/>
<path d="M90.3999 86.941C84.6999 90.441 83.7999 98.641 88.5999 103.441C91.7999 106.541 95.5999 107.241 100.1 105.441C108.4 102.041 108.6 90.441 100.5 86.541C96.1999 84.541 94.1999 84.641 90.3999 86.941Z" fill="black"/>
</svg>
