<svg width="124" height="108" viewBox="0 0 124 108" fill="none" xmlns="http://www.w3.org/2000/svg">
<path d="M56.721 8.20012C51.221 18.1001 46.321 26.8001 42.021 34.1001C40.221 37.0001 38.721 39.9001 38.721 40.5001C38.721 41.0001 39.121 40.9001 39.621 40.1001C40.321 39.1001 40.521 39.4001 40.421 41.3001C40.221 43.8001 38.721 45.3001 38.721 43.0001C38.721 41.1001 37.021 42.0001 35.921 44.4001C35.021 46.4001 35.221 46.9001 37.321 47.9001C39.921 49.1001 39.721 49.3001 45.121 39.8001C48.021 34.7001 48.321 33.5001 46.521 34.6001C45.921 35.0001 45.721 34.9001 46.121 34.2001C46.421 33.6001 46.321 32.9001 45.721 32.5001C45.021 32.1001 45.021 31.2001 45.821 29.9001C46.421 28.7001 47.121 28.1001 47.421 28.4001C47.721 28.7001 47.521 29.6001 46.821 30.3001C45.921 31.4001 46.021 32.0001 47.121 32.9001C48.321 33.9001 49.021 33.3001 51.221 29.3001C58.921 15.0001 60.321 12.6001 61.421 12.3001C62.121 12.0001 63.621 13.8001 64.821 16.2001C66.021 18.6001 70.921 27.2001 75.721 35.5001C87.921 56.5001 111.221 97.1001 112.621 99.7001L113.821 102H100.821H87.821L83.721 95.1001C77.521 84.5001 77.521 85.0001 85.121 85.0001C88.721 85.0001 91.721 84.8001 91.721 84.5001C91.721 83.9001 79.521 62.4001 68.521 43.7001L61.521 31.9001L53.321 46.2001C48.821 54.1001 41.921 66.0001 37.921 72.7001L30.821 85.0001H37.821C41.721 85.0001 44.721 85.3001 44.521 85.8001C44.421 86.2001 42.321 90.0001 39.921 94.3001L35.621 102H22.521C11.121 102 9.62102 101.8 10.121 100.4C10.421 99.6001 17.021 88.0001 24.721 74.8001C34.521 58.1001 38.521 50.4001 37.821 49.7001C35.721 47.6001 33.721 48.3001 31.621 51.7001C29.821 54.6001 29.621 55.6001 30.521 57.1001C32.121 59.5001 32.021 60.7001 30.521 59.2001C29.821 58.5001 29.021 58.0001 28.521 58.0001C27.521 58.0001 24.521 63.9001 24.221 66.5001C23.821 69.9001 23.721 70.0001 22.621 69.7001C21.521 69.5001 -0.778985 106.8 0.0210152 107.6C0.221015 107.8 28.121 107.9 62.121 107.8L123.721 107.5L105.621 76.0001C95.621 58.7001 82.821 36.6001 77.321 27.0001C71.721 17.4001 66.621 9.40012 65.921 9.40012C63.421 9.10012 63.221 9.00012 64.521 8.10012C65.521 7.50012 65.421 6.60012 63.721 3.70012C62.521 1.60012 61.421 0.00012207 61.421 0.00012207C61.321 0.00012207 59.221 3.70012 56.721 8.20012ZM66.821 15.0001C67.921 15.0001 71.721 19.1001 71.721 20.3001C71.721 20.8001 69.921 19.3001 67.721 17.0001C65.521 14.7001 63.721 12.3001 63.821 11.7001C63.821 11.0001 64.321 11.5001 64.921 12.7001C65.521 14.0001 66.421 15.0001 66.821 15.0001ZM49.721 26.0001C49.721 26.5001 49.321 27.0001 48.721 27.0001C48.221 27.0001 47.721 26.5001 47.721 26.0001C47.721 25.4001 48.221 25.0001 48.721 25.0001C49.321 25.0001 49.721 25.4001 49.721 26.0001ZM64.721 48.2001C66.021 50.6001 70.621 58.5001 74.921 65.9001C79.221 73.3001 82.721 79.5001 82.721 79.6001C82.721 79.8001 80.921 80.0001 78.821 80.0001H74.921L69.221 69.7001C66.021 64.1001 62.921 58.9001 62.421 58.2001C61.621 57.2001 60.321 58.9001 56.921 64.7001C48.521 79.4001 48.121 80.0001 44.221 80.0001C42.321 80.0001 40.721 79.8001 40.721 79.6001C40.721 78.5001 61.021 44.0001 61.621 44.0001C62.021 44.0001 63.421 45.9001 64.721 48.2001ZM65.021 73.5001C66.521 76.0001 67.721 78.5001 67.721 79.0001C67.721 79.6001 65.021 80.0001 61.721 80.0001C58.121 80.0001 55.721 79.6001 55.721 78.9001C55.721 77.5001 60.721 69.0001 61.621 69.0001C61.921 69.0001 63.421 71.0001 65.021 73.5001ZM76.121 93.1001C78.621 97.6001 80.721 101.4 80.721 101.6C80.721 101.8 72.221 102 61.721 102C51.321 102 42.721 101.7 42.721 101.2C42.721 100.8 44.721 97.0001 47.221 92.7001L51.721 85.0001H61.721H71.621L76.121 93.1001Z" fill="black"/>
</svg>
