<svg width="119" height="118" viewBox="0 0 119 118" fill="none" xmlns="http://www.w3.org/2000/svg">
<path d="M57.1302 0.976562C56.2302 1.87656 54.1302 4.67656 52.4302 7.07656C49.9302 10.6766 49.6302 11.8766 50.5302 12.9766C52.5302 15.3766 54.2302 14.7766 56.6302 10.8766C58.7302 7.37656 58.9302 7.27656 60.3302 9.07656C61.1302 10.1766 62.9302 13.4766 64.4302 16.4766C66.6302 21.1766 67.0302 23.2766 67.0302 30.9766C67.0302 37.6766 66.5302 40.9766 65.1302 43.9766L63.3302 47.9766L62.0302 40.9766C61.3302 37.0766 59.6302 31.6766 58.2302 28.8766C53.8302 20.2766 41.0302 10.1766 31.4302 7.97656C29.1302 7.37656 28.7302 7.67656 28.1302 10.5766C27.8302 12.2766 27.5302 15.8766 27.5302 18.5766C27.5302 23.1766 27.7302 23.4766 30.0302 23.4766C32.1302 23.4766 32.5302 22.9766 32.5302 20.5766C32.5302 14.5766 33.2302 14.1766 38.7302 17.1766C48.7302 22.6766 55.2302 32.1766 56.9302 43.9766L57.5302 47.9766L55.8302 45.4766C52.8302 41.0766 44.7302 33.6766 40.8302 31.6766C34.7302 28.5766 26.5302 27.1766 17.1302 27.6766C12.4302 27.8766 8.23023 28.3766 7.93023 28.7766C7.03023 29.5766 10.2302 38.4766 12.4302 41.3766C13.9302 43.3766 14.5302 43.5766 16.3302 42.5766L18.5302 41.3766L16.5302 37.4766L14.5302 33.4766L17.0302 32.8766C21.1302 31.8766 30.6302 33.4766 36.5302 36.0766C41.6302 38.3766 52.3302 48.0766 51.1302 49.2766C50.8302 49.4766 49.0302 48.9766 47.2302 48.1766C38.5302 43.9766 26.3302 43.5766 17.3302 47.0766C12.4302 49.0766 3.93023 54.2766 1.23023 56.9766C-0.569768 58.6766 -0.469768 58.8766 2.03023 61.4766C3.43023 62.8766 6.33023 65.1766 8.53023 66.3766L12.4302 68.5766L13.6302 66.3766C14.8302 63.9766 14.0302 62.8766 9.03023 59.8766C7.43023 58.9766 7.73023 58.5766 11.8302 56.0766C22.7302 49.7766 34.3302 48.3766 43.2302 52.5766L48.0302 54.7766L42.2302 55.5766C33.3302 56.8766 25.4302 60.8766 19.2302 67.3766C14.2302 72.5766 7.53023 84.2766 7.53023 87.7766C7.53023 89.3766 12.2302 90.4766 19.3302 90.4766C23.4302 90.4766 23.6302 90.3766 23.3302 87.6766C23.1302 85.9766 22.5302 85.0766 21.6302 85.2766C20.8302 85.4766 18.9302 85.2766 17.3302 84.9766L14.5302 84.2766L17.2302 79.2766C22.7302 69.2766 32.1302 62.8766 44.0302 61.0766L48.0302 60.4766L45.0302 62.6766C37.8302 68.1766 34.3302 72.1766 31.2302 78.3766C28.1302 84.6766 28.0302 85.4766 28.0302 97.1766C28.0302 103.877 28.3302 109.577 28.7302 109.977C29.6302 110.877 38.4302 107.877 41.4302 105.577C43.4302 104.077 43.6302 103.477 42.6302 101.677L41.4302 99.4766L37.5302 101.477L33.6302 103.477L33.0302 100.177C32.2302 95.7766 34.1302 85.1766 36.7302 80.0766C39.0302 75.4766 48.7302 65.6766 49.3302 67.3766C49.5302 68.0766 49.2302 69.0766 48.7302 69.7766C47.0302 71.8766 44.5302 81.6766 44.5302 86.3766C44.6302 95.9766 48.8302 106.977 55.3302 114.577C58.6302 118.377 58.8302 118.477 60.6302 116.877C61.7302 115.877 63.9302 113.077 65.5302 110.677C67.8302 107.177 68.2302 105.877 67.4302 104.777C65.5302 102.577 63.7302 103.277 61.1302 107.077L58.7302 110.677L56.1302 106.277C52.2302 99.5766 50.4302 93.5766 50.3302 87.2766C50.3302 81.8766 52.8302 72.0766 54.4302 70.9766C54.9302 70.7766 55.5302 73.0766 55.8302 76.1766C56.6302 84.1766 61.4302 93.2766 67.8302 99.0766C72.5302 103.277 85.2302 110.477 88.1302 110.477C89.4302 110.477 90.5302 105.077 90.5302 98.6766C90.5302 94.8766 90.3302 94.4766 88.0302 94.4766C86.3302 94.4766 85.5302 95.0766 85.4302 96.1766C85.3302 97.1766 85.2302 98.3766 85.0302 98.9766C84.9302 99.4766 84.7302 100.777 84.7302 101.777C84.5302 103.477 84.0302 103.377 79.4302 100.877C72.6302 97.0766 65.1302 88.7766 63.2302 82.7766C59.8302 72.0766 60.4302 68.2766 64.4302 74.7766C71.6302 86.4766 89.2302 92.7766 106.83 89.7766C110.33 89.2766 110.63 88.9766 110.03 86.5766C109.73 85.1766 108.33 81.5766 106.93 78.7766C104.43 73.5766 104.33 73.5766 102.03 75.0766L99.6302 76.6766L101.53 80.4766C103.43 84.2766 103.43 84.2766 101.43 84.7766C97.3302 85.8766 86.9302 84.3766 81.5302 81.8766C76.8302 79.6766 65.7302 69.9766 66.8302 68.8766C67.0302 68.6766 69.5302 69.4766 72.5302 70.5766C86.4302 75.8766 101.63 73.0766 114.33 62.7766L118.63 59.2766L116.33 56.7766C113.93 54.1766 105.73 48.9766 105.13 49.5766C104.93 49.7766 104.53 50.9766 104.13 52.0766C103.63 53.8766 104.13 54.6766 107.03 56.4766L110.63 58.7766L106.33 61.5766C97.3302 67.6766 83.2302 69.1766 74.0302 65.0766L70.0302 63.2766L77.2302 61.9766C86.3302 60.3766 93.5302 56.3766 99.5302 49.6766C104.03 44.6766 110.53 33.0766 110.53 30.0766C110.53 28.4766 106.23 27.4766 99.4302 27.4766C94.8302 27.4766 94.5302 27.6766 94.5302 29.9766C94.5302 32.1766 94.9302 32.4766 98.3302 32.4766C100.43 32.4766 102.53 32.7766 102.83 33.0766C104.13 34.3766 98.0302 43.6766 93.0302 48.2766C88.1302 52.7766 82.1302 55.5766 74.8302 56.8766C70.4302 57.5766 70.7302 56.5766 76.1302 52.6766C81.5302 48.6766 86.7302 40.8766 88.9302 33.4766C91.5302 24.6766 90.8302 7.47656 87.8302 7.47656C87.0302 7.47656 83.4302 8.87656 79.9302 10.4766C73.5302 13.5766 73.5302 13.5766 75.1302 15.9766L76.7302 18.3766L80.5302 16.4766L84.3302 14.4766L84.9302 18.2766C85.7302 22.8766 84.2302 31.0766 81.5302 37.2766C79.5302 41.6766 69.8302 52.1766 68.7302 51.0766C68.5302 50.7766 69.0302 48.9766 69.8302 47.1766C72.5302 41.6766 73.8302 33.5766 73.1302 27.0766C72.4302 19.8766 66.3302 6.47656 61.7302 2.17656C59.0302 -0.423439 58.6302 -0.523438 57.1302 0.976562Z" fill="black"/>
</svg>
