<svg width="123" height="107" viewBox="0 0 123 107" fill="none" xmlns="http://www.w3.org/2000/svg">
<path d="M58.4 1.7C55 7.3 49.2 19.1 51 17.1C52.2 15.7 53 15.3 53 16.1C52.9 18.1 50.7 20.7 49.4 20.3C48.7 20.1 46.4 23.3 44.1 27.4C41.9 31.5 39.6 35.2 39 35.5C38.5 35.8 38 37 38 38.1C38 39.1 37.6 40 37 40C36.5 40 36 38.9 36 37.6C36 35.9 34.2 33.7 30 30L24 24.8V40.9C24 49.8 23.8 57 23.6 57C23.4 57 20.7 55.9 17.6 54.5C14.5 53.1 11.7 52 11.5 52C11.2 52 11 58.3 11 66C11 79.9 11 80 8.7 80C7.5 80 5 79.6 3.2 79.1L0 78.1V92.6V107H61.1H122.2L119.4 102.2C112.5 90.5 99.4 67.9 96.2 62.3C93.7 57.9 92.3 56.3 91.5 57C89.6 58.5 86.9 55.9 87.6 53.3C88 52 88.7 51.3 89.2 51.6C89.7 51.9 89.6 51.3 88.9 50.2C88.2 49 87.2 48.3 86.8 48.6C86.4 48.9 86.2 48.5 86.5 47.8C87.1 46.2 80.1 34 78.7 34.3C78.2 34.4 77.5 33.9 77.2 33.1C76.9 32.2 77.2 32 78 32.5C78.9 33 79.1 32.9 78.6 32.1C78.2 31.5 77.4 31.3 76.8 31.6C76.1 32.1 75.9 31.8 76.2 30.8C76.6 30 75.1 26.2 73 22.4C70.8 18.6 67.2 12 64.9 7.7C62.5 3.5 60.4 0 60 0C59.7 0 59 0.799995 58.4 1.7ZM67.7 17.2C67.1 17.5 66 17.6 65.2 17.2C64.1 16.8 64.3 17.9 66.1 21.1C67.7 23.8 69.3 25.4 70.3 25.4C71.2 25.3 72 25.6 72 26.2C72 26.7 72.4 26.9 72.9 26.5C74.2 25.8 75.3 27.7 74.5 29.1C74 29.8 73.2 29.6 72 28.5C70.8 27.4 71.4 29.2 73.7 33.6C78.1 42.1 89.1 61 89.7 61C89.9 61 89.9 60.6 89.6 60.2C89.3 59.7 89.7 59.3 90.5 59.3C91.6 59.3 91.7 59.7 90.8 60.7C90 61.7 91.6 65.2 97.9 76.2C102.4 83.9 105.9 90.4 105.7 90.6C105.5 90.8 100.7 87.1 94.9 82.5C79.8 70.1 80.9 70.7 76.9 72.4C71.8 74.4 68 75.2 68 74.1C68 73.6 69.5 73 71.3 72.8C74.1 72.5 73.9 72.3 69.5 71.7C66.8 71.2 63.7 70.5 62.8 69.9C61.8 69.4 60 69 58.8 68.9C56.6 68.9 56.6 68.8 58.5 68C61.2 66.8 63.2 66.8 62.6 67.9C62.3 68.4 64.8 69.1 68.3 69.5C71.7 69.9 74.8 70.7 75.1 71.2C75.5 71.9 76.4 71.9 77.6 71.1C78.7 70.5 79.3 70 79 69.9C76.5 69.4 73.1 69 71 69C68.8 68.9 68.7 68.8 70.3 67.9C71.2 67.3 73 67.2 74.3 67.6C76.1 68.1 75.8 67.6 73 65C68.1 60.6 64.4 58 63.7 58.6C63.4 58.9 62.9 58.6 62.4 57.9C61.9 57.1 62.1 56.9 63 57.5C63.9 58.1 64.1 57.9 63.6 57.1C63.1 56.4 62.2 56.1 61.4 56.4C60.7 56.7 58.6 55.1 56.5 52.7C52.5 48 44.3 41 42.8 41C42.3 41 42.1 41.4 42.4 41.8C42.6 42.2 42.4 43.2 41.9 44C40.4 46.4 41.3 42 43 39C43.7 37.6 44.4 34.9 44.5 33C44.7 29.3 46.3 24.5 48.2 22.2C49.1 21.1 49.5 21.1 50.1 22.2C50.6 22.9 51 23.9 51 24.5C51 25 50.5 24.8 50 24C49.1 22.7 48.9 22.7 48 24C47.4 24.8 47.2 26.3 47.4 27.4C47.7 28.4 47.1 30.4 46.2 31.8C45.2 33.3 45 34.1 45.8 33.6C46.4 33.2 47.7 31.5 48.6 29.8C49.6 27.9 49.7 27.1 49 27.5C48.2 28 47.9 27.8 48.2 26.9C48.5 26.1 49.2 25.5 49.9 25.5C51.7 25.5 56.1 17 55.8 14.1C55.6 12.3 56 11.5 57 11.5C57.8 11.5 59.1 11.1 59.8 10.6C61.5 9.6 64.3 10.7 63.4 12.1C63 12.9 62.5 12.8 61.8 11.9C61 10.8 60.9 10.8 61.3 12C61.5 12.8 62.3 13.4 63 13.2C63.7 13 64 13.5 63.7 14.4C63.3 15.4 63.6 15.7 64.6 15.3C66.1 14.8 66.6 13 65.2 13C64.8 13 64.3 12 64.3 10.8C64.1 9.1 64.7 9.5 66.4 12.5C67.7 14.9 68.2 16.8 67.7 17.2ZM55 15.8C55 17.3 54.8 17.3 54 16C52.7 14 52.7 12.7 54 13.5C54.6 13.8 55 14.9 55 15.8ZM52.8 20.5C52.2 21.9 51.5 22.8 51.3 22.6C50.8 22.1 52.8 18 53.5 18C53.8 18 53.4 19.1 52.8 20.5ZM75.4 32.6C75.7 33.4 75.6 33.8 75 33.5C74.4 33.2 74 32.5 74 31.9C74 30.5 74.7 30.8 75.4 32.6ZM42.7 33.4C42.4 34.2 42.6 35 43.1 35.2C43.6 35.4 43.4 36.4 42.6 37.5C41.2 39.4 41.1 39.4 41.5 36.5C41.7 34.8 41.9 33.2 41.9 32.7C42 32.3 42.3 32 42.6 32C42.9 32 43 32.6 42.7 33.4ZM40.2 39.7C39.7 45.6 39.2 46 39.1 40.7C39 38.1 39.4 36 39.8 36C40.2 36 40.4 37.7 40.2 39.7ZM35.1 44.7C33.9 46.7 33.7 46.1 34.6 43.5C35 42.6 35.5 42.1 35.7 42.4C36 42.6 35.7 43.7 35.1 44.7ZM37.7 46.2C37.4 47 37.1 46.7 37.1 45.6C37 44.5 37.3 43.9 37.6 44.3C37.9 44.6 38 45.5 37.7 46.2ZM44.6 45.6C44.3 46.5 44 47.7 44 48.3C44 49.1 43.7 49.1 43 48.4C41.8 47.2 42.7 44 44.2 44C44.8 44 44.9 44.7 44.6 45.6ZM37 51.3C37 52.3 36.6 52.8 36 52.5C35.5 52.2 35 50.7 35 49.2C35 47.1 35.2 46.8 36 48C36.5 48.8 37 50.3 37 51.3ZM41 58C41.7 59.3 41.7 60 41 60C40.5 60 40 59.4 40 58.7C40 57.9 39.6 58 39 59C38.3 60.1 38.1 59.5 38.5 57C38.9 54.1 38.8 53.9 38 55.5C37.1 57.3 37 57.2 37.5 55C37.7 53.6 38 51.4 38.1 50C38.2 48.4 38.5 49 39 51.7C39.5 54 40.4 56.8 41 58ZM41.6 50.5C41.2 51.7 41.6 51.9 43.6 51.4C44.9 51 46 51.2 45.9 51.6C45.6 53 47.1 56.2 49.9 59.9C51.7 62.3 52 63.2 50.9 62.8C49.7 62.3 49.4 62.8 49.5 65.1C49.6 66.7 49.3 68 48.8 68C48.3 68 48.2 68.4 48.5 69C48.8 69.5 49.6 70 50.1 70C50.7 70 50.8 69.5 50.5 69C50.2 68.4 50.6 68 51.4 68C53.7 68 54.2 69.8 52.1 70.5C49.6 71.3 46.3 69.1 42.6 64.3C41 62.2 40 60.8 40.4 61.2C40.9 61.6 41.9 61.3 42.7 60.5C43.5 59.7 44.6 59 45.1 59C46.3 59 46.3 60.7 45 61.5C44.4 61.9 44.6 63.3 45.7 65.3L47.4 68.5L48.1 64.5C48.7 61.1 48.4 59.9 46.2 56.7C44.8 54.6 43.1 53.1 42.4 53.4C41 53.9 39.7 51.4 40.6 49.9C41.5 48.4 42.3 48.9 41.6 50.5ZM44 57.6C44 58.4 43.6 59 43 59C42.5 59 42 58.1 42 56.9C42 55.8 42.5 55.2 43 55.5C43.6 55.8 44 56.8 44 57.6ZM26.7 65.1C31.6 67.4 42.3 72.4 50.5 76.2C88.9 94 97.8 98.5 91.5 96.7C90.4 96.3 74.7 93.1 56.5 89.6C38.4 86 22 82.8 20.3 82.4L17 81.7V71.4C17 65.7 17.2 61 17.5 61C17.7 61 21.9 62.9 26.7 65.1ZM57 65.5C58.6 66.4 58.9 66.9 58 67C57.1 67 55.9 66.5 55.2 65.8C54.6 65.2 53.7 65 53.3 65.4C52.9 65.8 53.2 66.6 54 67.1C55.2 68 55.2 68.1 53.7 67.6C52.7 67.3 51.4 67 50.9 67C50.4 67 50 66.6 50 66.1C50 65.3 51.6 64.5 54 64.2C54.3 64.1 55.6 64.7 57 65.5ZM96.7 67.5C96.7 68.3 96.3 68.7 95.8 68.4C95.3 68.1 95.2 67.4 95.5 66.9C96.4 65.6 96.7 65.8 96.7 67.5ZM59.3 71.1C58.5 71.9 57.7 71.9 56.3 71.1C54.7 70.2 54.9 70.1 57.5 70C59.6 70 60.1 70.3 59.3 71.1ZM65 72.9C65 74.4 62.2 75 58.7 74.2L55.5 73.5L59.5 72.9C61.7 72.6 63.8 72.2 64.3 72.1C64.7 72.1 65 72.4 65 72.9Z" fill="black"/>
</svg>
