<svg width="101" height="117" viewBox="0 0 101 117" fill="none" xmlns="http://www.w3.org/2000/svg">
<path d="M39.5 6.39994C33.5 9.89994 22.1 16.4999 14.2 21.0999L0 29.2999L0.2 58.6999L0.5 88.0999L23.5 101.5C36.2 108.8 47.4 115.3 48.5 115.9C50.7 117 49.8 117.4 91 93.4999L100.5 87.9999L100.8 58.5999L101 29.1999L94.8 25.5999C74.1 13.6999 56.1 3.29993 53.5 1.79993L50.5 -6.10352e-05L39.5 6.39994ZM74 20.0999L95.5 32.5999L95.8 42.7999C96.1 52.3999 96 52.9999 94.3 52.3999C93.3 51.9999 83.2 46.2999 71.8 39.6999C60.4 33.1999 50.8 27.7999 50.4 27.7999C50.1 27.7999 45.6 30.2999 40.5 33.2999C35.3 36.2999 30.6 38.7999 30.1 38.7999C29.4 38.7999 29 35.1999 29 28.8999V18.9999L39.3 12.8999C44.9 9.59994 50.2 6.99994 51 7.19994C51.8 7.39994 62.2 13.1999 74 20.0999ZM24 48.5999V74.3999L32.3 79.0999C45.9 86.7999 45.7 85.6999 35.6 91.6999L26.9 96.7999L18.7 92.1999C14.2 89.5999 9.3 86.6999 7.8 85.5999L5.1 83.6999L5.3 58.0999L5.5 32.4999L14 27.6999C18.7 24.9999 22.8 22.7999 23.3 22.7999C23.7 22.7999 24 34.3999 24 48.5999ZM86.3 54.5999C90.5 56.9999 94.5 59.7999 95.1 60.8999C95.6 61.9999 96 67.4999 95.9 73.3999C95.6 85.5999 97.2 83.5999 79.5 93.7999C57.4 106.5 51.5 109.8 50.4 109.8C48.6 109.8 33 100.6 33.5 99.7999C33.8 99.3999 43.7 93.4999 55.5 86.6999L77 74.3999V61.9999C77 55.1999 77.3 49.7999 77.8 49.9999C78.2 50.0999 82 52.1999 86.3 54.5999Z" fill="black"/>
</svg>
