<svg width="92" height="111" viewBox="0 0 92 111" fill="none" xmlns="http://www.w3.org/2000/svg">
<path d="M23.0617 9.5001C11.3617 14.7001 1.2617 19.0001 0.761704 19.0001C0.161704 19.0001 -0.138296 28.2001 0.0617045 44.8001L0.361704 70.6001L4.0617 78.2001C10.0617 90.3001 24.4617 102.2 40.0617 108L45.7617 110.1L53.2617 107C73.3617 98.6001 87.4617 83.9001 90.8617 67.7001C91.4617 64.6001 91.7617 53.7001 91.6617 41.1001L91.3617 19.7001L68.8617 9.90009C56.4617 4.40009 45.9617 9.91821e-05 45.3617 9.91821e-05C44.8617 0.100098 34.7617 4.30009 23.0617 9.5001ZM65.8617 14.7001L85.8617 23.4001V27.7001C85.8617 30.1001 85.7617 32.0001 85.5617 32.0001C85.3617 32.0001 80.1617 29.7001 73.8617 26.9001C55.6617 18.8001 46.5617 15.0001 45.2617 15.0001C44.6617 15.0001 41.0617 16.4001 37.2617 18.1001C28.4617 22.1001 5.6617 32.0001 5.2617 32.0001C5.0617 32.0001 4.8617 30.1001 4.8617 27.7001V23.4001L14.1617 19.5001C19.1617 17.3001 28.0617 13.4001 33.8617 10.8001C39.6617 8.2001 44.7617 6.1001 45.1617 6.0001C45.5617 6.0001 54.9617 9.90009 65.8617 14.7001ZM42.8617 27.3001V32.6001L25.1617 40.4001C15.3617 44.7001 6.7617 48.5001 6.1617 48.7001C5.1617 49.1001 4.8617 47.7001 4.8617 43.8001V38.4001L13.9617 34.5001C19.0617 32.3001 27.2617 28.6001 32.2617 26.3001C37.2617 24.1001 41.6617 22.1001 42.1617 22.1001C42.5617 22.0001 42.8617 24.4001 42.8617 27.3001ZM76.1617 34.0001L85.8617 38.2001V43.7001C85.8617 47.7001 85.5617 49.1001 84.6617 48.7001C61.3617 38.6001 50.1617 33.6001 49.2617 32.9001C48.4617 32.2001 48.0617 23.7001 48.7617 22.3001C48.8617 22.2001 54.6617 24.7001 76.1617 34.0001ZM42.8617 44.3001V49.6001L34.6617 53.2001C30.0617 55.3001 21.8617 58.9001 16.3617 61.3001C10.8617 63.8001 6.0617 65.6001 5.6617 65.3001C5.1617 65.1001 4.8617 62.8001 4.8617 60.2001V55.4001L18.5617 49.5001C26.0617 46.2001 34.2617 42.5001 36.7617 41.3001C39.2617 40.1001 41.6617 39.1001 42.1617 39.1001C42.5617 39.0001 42.8617 41.4001 42.8617 44.3001ZM74.8617 50.4001C80.6617 52.9001 85.4617 55.0001 85.5617 55.0001C85.7617 55.0001 85.8617 57.5001 85.8617 60.6001C85.8617 64.7001 85.5617 66.1001 84.6617 65.7001C78.0617 63.0001 50.0617 50.5001 49.2617 49.8001C48.4617 49.2001 47.9617 40.7001 48.7617 39.3001C48.8617 39.1001 54.5617 41.5001 74.8617 50.4001ZM42.8617 61.5001C42.8617 64.5001 42.7617 67.0001 42.5617 67.0001C42.3617 67.0001 35.4617 69.9001 27.3617 73.5001C19.1617 77.1001 12.1617 80.0001 11.8617 80.0001C11.4617 80.0001 10.2617 78.2001 9.0617 76.1001C7.2617 73.0001 7.0617 72.0001 8.0617 71.3001C9.7617 70.3001 41.1617 56.2001 42.1617 56.1001C42.5617 56.0001 42.8617 58.5001 42.8617 61.5001ZM74.1617 67.0001C82.8617 70.8001 83.8617 71.5001 83.2617 73.4001C81.9617 77.4001 79.6617 80.1001 77.9617 79.5001C68.7617 76.0001 50.0617 67.3001 49.0617 66.1001C47.9617 64.7001 47.5617 58.8001 48.5617 56.8001C48.7617 56.4001 52.3617 57.6001 56.6617 59.4001C60.8617 61.3001 68.7617 64.7001 74.1617 67.0001ZM42.8617 78.3001V83.7001L33.2617 87.8001C26.4617 90.8001 23.2617 91.7001 22.0617 91.1001C19.3617 89.7001 15.2617 84.8001 16.3617 84.3001C16.9617 84.1001 22.7617 81.5001 29.3617 78.6001C35.9617 75.6001 41.6617 73.1001 42.1617 73.1001C42.5617 73.0001 42.8617 75.4001 42.8617 78.3001ZM70.6617 82.5001L75.9617 84.7001L72.3617 88.3001C70.2617 90.4001 68.2617 92.0001 67.7617 92.0001C67.2617 92.0001 62.5617 90.0001 57.3617 87.6001L47.8617 83.1001V78.7001C47.8617 76.3001 48.1617 74.1001 48.4617 73.7001C48.7617 73.4001 52.7617 74.7001 57.1617 76.7001C61.6617 78.6001 67.7617 81.2001 70.6617 82.5001ZM42.8617 96.5001C42.8617 100.1 42.6617 103 42.3617 103C40.9617 103 29.8617 96.9001 29.8617 96.1001C29.8617 95.3001 40.2617 90.2001 42.1617 90.1001C42.5617 90.0001 42.8617 92.9001 42.8617 96.5001ZM56.5617 93.3001C59.4617 94.5001 61.8617 95.8001 61.8617 96.1001C61.8617 96.8001 50.2617 102.3 49.1617 102.2C48.7617 102.1 48.2617 99.3001 48.2617 96.0001C48.1617 89.2001 47.4617 89.4001 56.5617 93.3001Z" fill="black"/>
</svg>
