<svg width="137" height="114" viewBox="0 0 137 114" fill="none" xmlns="http://www.w3.org/2000/svg">
<path d="M66.4 13.2L53.1 26.5L47.8 21.2C44.9 18.4 42.3 16 42 16C41.7 16 32.2 25.3 20.8 36.6L0 57.1L20.5 77.6C31.7 88.8 41.3 98 41.7 98C42.2 98 44.9 95.6 47.8 92.8L53.1 87.5L66.4 100.8L79.6 114L108.1 85.5L136.6 57L108.1 28.5L79.6 0L66.4 13.2ZM43.9 25.2C45.9 27.2 45.3 28 41.6 28C39.7 28 38.1 27.6 38.1 27.2C38.1 26 40.3 24 41.6 24C42.2 24 43.2 24.5 43.9 25.2ZM45.1 33.9C45.1 36.1 41.9 37.1 35.5 36.8C29 36.5 28.8 36.4 30.5 34.7C31.8 33.4 33.9 33 38.7 33C42.2 33 45.1 33.4 45.1 33.9ZM64.6 46L75.6 57L64.6 68C58.6 74 53.4 79 53 79C52.3 79 31.1 57.8 31.1 57.1C31.1 56.4 52.4 35 53.1 35C53.4 35 58.6 39.9 64.6 46ZM36.1 42.9C36.1 44.7 33.6 45.4 27.4 45.6C23.9 45.7 21.1 45.6 21.1 45.4C21.1 42.7 22.8 42 29.2 42C33 42 36.1 42.4 36.1 42.9ZM27.1 52.5C26.2 53.6 23.8 54 18.3 54C11.4 54 10.9 53.9 12.7 52.5C13.9 51.6 17 51.1 21.5 51C27.5 51 28.2 51.2 27.1 52.5ZM27.1 61.5C28.2 62.8 27.4 63 20.8 63C15.4 63 13 62.6 12.1 61.5C11 60.2 11.8 60 18.4 60C23.8 60 26.2 60.4 27.1 61.5ZM35.9 70.7C36.5 72.7 22.7 72.5 21.1 70.5C19.9 69.1 20.6 68.9 27.6 69.2C32.8 69.4 35.6 69.9 35.9 70.7ZM45.1 79.5C46.2 80.8 45.4 81 38.8 81C33.4 81 31 80.6 30.1 79.5C29 78.2 29.8 78 36.4 78C41.8 78 44.2 78.4 45.1 79.5ZM45.1 87.1C45.1 88.8 41.9 90.4 40.3 89.4C37.4 87.5 37.9 86.2 41.5 86.3C43.5 86.4 45.1 86.7 45.1 87.1Z" fill="black"/>
</svg>
