<svg width="124" height="107" viewBox="0 0 124 107" fill="none" xmlns="http://www.w3.org/2000/svg">
<path d="M58.1 4.81352C56.2 8.01353 50.6 17.8135 45.5 26.6135C40.4 35.4135 31.3 51.1135 25.3 61.6135C2.8 100.514 0 105.314 0 105.714C0 105.914 27.9 106.114 61.9 106.114H123.9L116.8 93.8135C108 78.7135 96 57.8135 91 49.1135C73.1 17.8135 63.6 1.41352 62.6 0.313522C61.7 -0.586479 60.7 0.313522 58.1 4.81352ZM65.6 16.3135L67.1 19.1135H62C59.3 19.1135 57 18.9135 57 18.5135C57 18.2135 58 16.2135 59.3 14.1135C61.7 9.71352 62.2 9.91352 65.6 16.3135ZM71.7 26.8135C72 27.6135 69.5 28.1135 63.2 28.3135C52.4 28.7135 50.9 28.4135 51.7 26.5135C52.1 25.3135 54.1 25.1135 61.8 25.3135C68 25.5135 71.5 26.0135 71.7 26.8135ZM76.8 36.3135C77.1 38.0135 75.9 38.1135 61.6 38.1135C53 38.1135 46 37.9135 46 37.7135C46 37.5135 46.3 36.5135 46.6 35.7135C47.2 34.3135 49.2 34.1135 61.9 34.3135C74.9 34.6135 76.5 34.8135 76.8 36.3135ZM81.8 44.3135C82.5 45.0135 83 45.9135 83 46.3135C83 46.7135 73.6 47.1135 62 47.1135C50.5 47.1135 41 46.9135 41 46.7135C41 46.5135 41.3 45.6135 41.6 44.7135C42.1 43.3135 44.8 43.1135 61.4 43.1135C75 43.1135 81 43.5135 81.8 44.3135ZM84 54.1135C81.7 55.9135 79.8 56.1135 61.5 56.0135C46.4 56.0135 41.1 55.7135 39.8 54.7135C38.8 54.0135 38 53.1135 38 52.7135C38 52.4135 48.9 52.1135 62.3 52.1135H86.5L84 54.1135ZM90.7 59.8135C90.9 60.4135 85.9 63.9135 79.5 67.6135L67.9 74.3135L68.1 87.5135C68.2 99.4135 68.1 100.614 66.5 100.614C64.9 100.614 64.7 99.2135 64.6 86.4135L64.5 72.2135L72.5 67.5135C76.9 64.9135 82.3 61.7135 84.5 60.5135C88.6 58.1135 90.1 57.9135 90.7 59.8135ZM39.9 61.5135C40.7 62.4135 41 68.7135 40.8 81.7135C40.5 98.8135 40.3 100.614 38.8 100.914C37.1 101.214 37 99.7135 37 80.7135C37 69.4135 37.4 60.1135 37.9 60.1135C38.4 60.1135 39.3 60.7135 39.9 61.5135ZM70 62.0135C70 62.3135 68.2 63.6135 65.9 64.8135L61.9 67.0135L57.5 64.9135C55.1 63.7135 53.3 62.5135 53.5 62.1135C54 61.3135 70 61.2135 70 62.0135ZM31.2 82.5135C31 98.0135 30.7 101.114 29.5 101.114C28.2 101.114 28 98.4135 28 84.6135C28 69.6135 29 62.4135 30.9 63.5135C31.2 63.7135 31.4 72.3135 31.2 82.5135ZM48.9 66.5135C49.7 67.4135 50 73.0135 49.8 84.2135C49.5 98.0135 49.3 100.614 48 100.614C46.7 100.614 46.5 97.8135 46.2 82.8135C46.1 72.8135 46.3 65.1135 46.9 65.1135C47.3 65.1135 48.3 65.7135 48.9 66.5135ZM94.8 67.4135C95.7 68.4135 93.8 69.9135 86.7 74.1135L77.5 79.6135L77.2 90.3135C77 99.0135 76.6 101.114 75.5 101.114C74.3 101.114 74 99.0135 74 89.2135V77.3135L83.3 71.8135C88.3 68.8135 92.8 66.3135 93.1 66.2135C93.5 66.1135 94.2 66.7135 94.8 67.4135ZM58.8 86.4135C58.5 98.2135 58.2 100.614 57 100.614C55.7 100.614 55.5 98.1135 55.2 85.3135C54.9 70.1135 55 70.0135 57 71.1135C58.9 72.1135 59 73.0135 58.8 86.4135ZM99.5 76.1135C99.5 77.2135 91.1 83.0135 87.6 84.4135C87.1 84.5135 86.7 88.3135 86.6 92.6135C86.5 99.3135 86.2 100.614 84.8 100.914C83.2 101.214 83 100.314 83 91.9135V82.6135L90.3 78.4135C97.6 74.2135 99.5 73.7135 99.5 76.1135ZM22 90.1135C22 99.2135 21.7 101.114 20.5 101.114C19.3 101.114 19 99.5135 19 92.6135C19 85.6135 20.3 79.1135 21.7 79.1135C21.8 79.1135 22 84.0135 22 90.1135ZM104.7 83.8135C104.9 84.4135 103.1 86.0135 100.6 87.5135C96.3 90.0135 96.1 90.3135 95.8 95.4135C95.6 99.2135 95.1 100.614 94 100.614C92.9 100.614 92.4 99.1135 92.2 94.5135L91.9 88.3135L97.2 85.2135C102.5 82.1135 104.1 81.8135 104.7 83.8135ZM109 92.0135C109 93.1135 108.1 94.3135 107 94.6135C105.6 95.0135 105 96.1135 105 98.2135C105 102.414 101.6 101.814 101.2 97.6135C100.9 95.3135 101.5 94.1135 103.7 92.4135C107.1 89.6135 109 89.5135 109 92.0135ZM13 98.1135C13 100.114 12.5 101.114 11.5 101.114C9.7 101.114 9.6 99.7135 11.2 97.1135C12.9 94.5135 13 94.6135 13 98.1135ZM113.8 99.9135C114 100.614 113.5 101.114 112.6 101.114C111.7 101.114 111 100.414 111 99.5135C111 97.8135 113.2 98.1135 113.8 99.9135Z" fill="black"/>
</svg>
