<svg width="101" height="117" viewBox="0 0 101 117" fill="none" xmlns="http://www.w3.org/2000/svg">
<path d="M38.5 6.60117C27.6 13.1012 13.8 21.1012 4.8 26.3012L0 29.0012V58.2012V87.5012L9.8 93.1012C15.1 96.2012 26.3 102.601 34.5 107.401C42.8 112.201 50 116.201 50.5 116.201C51.1 116.201 58.7 112.001 67.5 106.901C76.3 101.901 87.4 95.5012 92.3 92.7012L101 87.7012L100.8 58.1012L100.5 28.6012L75.6 14.3012C61.9 6.40117 50.4 -0.0988312 50.1 0.0011673C49.8 0.0011673 44.6 3.00117 38.5 6.60117ZM59 11.2012C63.1 13.5012 71.9 18.6012 78.5 22.3012C96.7 32.8012 96.2 32.3012 95.8 37.8012C95.6 41.3012 95.1 42.3012 94 42.0012C81.4 38.7012 73 38.3012 62.2 40.5012C40.6 44.9012 22.4 61.5012 16.5 82.4012C15.5 85.7012 14.6 88.6012 14.4 88.8012C14.3 88.9012 12.3 88.1012 10.2 86.9012C5.3 84.1012 5.3 84.2012 6 53.5012L6.5 31.7012L28 19.3012C39.8 12.5012 50 6.90117 50.5 6.90117C51.1 6.90117 54.9 8.80117 59 11.2012ZM86.5 46.0012C93.7 47.8012 96 49.1012 96 51.0012C96 53.3012 94.5 53.4012 88.9 51.3012C82.8 49.0012 67.3 49.0012 59.9 51.2012C42.6 56.6012 28.6 71.9012 25 89.5012C24 94.4012 23.7 94.8012 21.9 93.9012C19.6 92.6012 19.6 92.0012 21.4 85.4012C26.2 67.3012 42.1 51.3012 60.1 46.5012C66.5 44.8012 80.9 44.5012 86.5 46.0012ZM85.5 56.0012C92.9 58.0012 96 59.9012 96 62.5012C96 63.8012 95.8 64.9012 95.6 64.9012C95.4 64.9012 92.6 63.7012 89.4 62.2012C84.4 59.9012 82.2 59.5012 74.5 59.6012C64.2 59.6012 57.8 61.7012 49.9 67.5012C41.8 73.4012 34 87.9012 34 97.0012C34 100.201 33.7 100.401 31.1 98.9012C29.5 98.1012 29.4 97.3012 30.2 92.2012C31.8 81.2012 39.6 68.9012 49 62.4012C58.4 55.9012 74.7 53.1012 85.5 56.0012ZM89.7 68.5012C94.4 70.9012 95.6 71.9012 95.8 74.1012C96 75.7012 95.9 76.9012 95.6 76.9012C95.4 76.9012 92.8 75.4012 89.9 73.6012C85.3 70.8012 83.7 70.4012 76.3 70.0012C65.9 69.6012 60.5 71.4012 53.9 77.6012C47.7 83.4012 44.7 90.4012 44.6 99.1012C44.5 105.801 43.9 106.801 41.1 105.001C38.7 103.501 40.1 91.3012 43.4 84.5012C49.9 71.3012 61.3 64.6012 76.2 65.2012C82.2 65.5012 85 66.2012 89.7 68.5012ZM86.4 77.8012C89.8 79.9012 94.6 84.7012 93.9 85.2012C93.7 85.4012 89.9 87.6012 85.5 90.1012C81.1 92.6012 71.9 97.8012 65.1 101.701C58.3 105.701 52.4 108.901 52 108.901C49.6 108.901 49.3 95.5012 51.6 90.1012C54.2 83.8012 60.6 78.2012 68 75.8012C72.1 74.4012 82.8 75.6012 86.4 77.8012Z" fill="black"/>
</svg>
