<svg width="136" height="110" viewBox="0 0 136 110" fill="none" xmlns="http://www.w3.org/2000/svg">
<path d="M59.2067 1.82888C51.9067 6.42888 49.0067 12.7289 50.0067 21.6289C51.4067 34.6289 68.3067 41.5289 78.6067 33.2289C88.9067 24.9289 89.2067 11.0289 79.2067 3.42888C74.2067 -0.371122 63.9067 -1.17112 59.2067 1.82888Z" fill="white"/>
<path d="M21.7064 26.7288C21.6064 28.2288 21.7064 37.7288 21.7064 47.7288C21.8064 59.8288 21.4064 66.0288 20.7064 66.0288C20.2064 66.0288 15.3064 64.2288 10.0064 62.0288C4.70642 59.8288 0.206417 58.1288 0.0064171 58.3288C-0.193583 58.5288 4.30642 69.2288 10.0064 82.1288C15.8064 95.0288 20.7064 106.329 21.0064 107.229C21.6064 108.929 24.7064 109.029 68.2064 109.029C106.106 109.029 114.706 108.829 114.706 107.729C114.706 107.029 119.406 95.9288 125.206 83.1288C131.006 70.2288 135.706 59.4288 135.506 59.0288C135.306 58.5288 131.406 59.7288 126.806 61.6288C122.206 63.4288 117.606 65.2288 116.606 65.5288C114.806 66.1288 114.706 65.2288 114.706 45.0288V23.8288L109.506 28.2288C106.606 30.5288 96.2064 39.6288 86.3064 48.3288C76.4064 56.9288 68.0064 63.9288 67.6064 63.8288C66.9064 63.5288 62.1064 59.4288 33.5064 34.2288C22.3064 24.5288 21.7064 24.1288 21.7064 26.7288ZM45.6064 52.4288C55.0064 60.5288 62.7064 67.6288 62.7064 68.0288C62.7064 68.5288 60.2064 71.1288 57.1064 73.8288L51.4064 78.7288L39.1064 73.7288L26.7064 68.8288V52.8288C26.7064 43.5288 27.1064 37.0288 27.6064 37.2288C28.1064 37.3288 36.2064 44.2288 45.6064 52.4288ZM108.006 69.0288C106.606 70.2288 86.3064 78.0288 84.7064 78.0288C83.9064 77.9288 80.7064 75.7288 77.7064 73.0288L72.2064 68.0288L77.2064 63.8288C79.9064 61.4288 88.0064 54.4288 95.2064 48.1288L108.206 36.7288L108.506 52.5288C108.606 61.2288 108.406 68.7288 108.006 69.0288ZM21.5064 81.9288C21.6064 86.9288 21.4064 91.0288 21.0064 91.0288C20.3064 91.0288 10.7064 70.4288 10.7064 68.8288C10.7064 68.4288 13.1064 69.2288 16.0064 70.4288L21.2064 72.7288L21.5064 81.9288ZM121.306 78.3288C119.006 83.3288 116.606 88.6288 116.006 90.0288C115.006 92.1288 114.806 90.8288 114.806 82.5288L114.706 72.5288L119.506 70.4288C122.106 69.2288 124.506 68.5288 124.906 68.7288C125.306 68.9288 123.706 73.2288 121.306 78.3288ZM72.8064 76.1288C75.5064 78.3288 77.7064 80.5288 77.7064 81.0288C77.7064 81.8288 69.9064 85.0288 68.0064 85.0288C67.4064 85.0288 64.8064 84.1288 62.3064 83.0288L57.7064 81.1288L62.5064 76.6288C65.1064 74.1288 67.4064 72.0288 67.6064 72.0288C67.8064 72.0288 70.1064 73.8288 72.8064 76.1288ZM37.5064 79.1288C42.0064 80.9288 45.6064 82.8288 45.4064 83.3288C45.2064 83.9288 41.0064 87.9288 35.9064 92.3288L26.7064 100.229V87.5288C26.7064 77.7288 27.0064 74.9288 28.0064 75.3288C28.6064 75.6288 32.9064 77.3288 37.5064 79.1288ZM108.306 98.7288C107.806 99.2288 89.7064 83.9288 89.7064 83.0288C89.7064 82.7288 93.9064 80.9288 99.0064 78.9288L108.206 75.4288L108.506 86.8288C108.606 93.1288 108.606 98.5288 108.306 98.7288ZM59.4064 88.4288C59.8064 88.8288 42.5064 96.0288 41.2064 96.0288C40.6064 96.0288 42.9064 93.6288 46.2064 90.6288L52.2064 85.2288L55.6064 86.6288C57.5064 87.4288 59.2064 88.2288 59.4064 88.4288ZM94.4064 95.6288C94.2064 95.8288 89.9064 94.3288 84.8064 92.3288L75.5064 88.6288L79.3064 86.9288L83.2064 85.3288L89.0064 90.3288C92.2064 93.0288 94.6064 95.4288 94.4064 95.6288ZM82.0064 97.2288C89.0064 100.029 94.7064 102.629 94.7064 102.929C94.7064 103.229 82.5064 103.529 67.7064 103.529C52.8064 103.529 40.7064 103.329 40.7064 103.029C40.7064 102.329 65.8064 92.1288 67.7064 92.0288C68.5064 92.0288 74.9064 94.3288 82.0064 97.2288Z" fill="white"/>
</svg>
